<svg width="42" height="28" viewBox="0 0 42 28" fill="none" xmlns="http://www.w3.org/2000/svg">
<path d="M11.6444 19.3521L11.6444 19.3521C12.0381 19.2104 12.6601 19.1768 13.2463 19.2135C13.8332 19.2501 14.4489 19.3611 14.8291 19.5502L11.6444 19.3521ZM11.6444 19.3521C10.001 19.9441 8.93383 21.248 8.7791 22.8927C8.63257 24.4503 9.5284 26.0018 10.9995 26.8019C11.3194 26.9758 11.5422 27.0857 11.8342 27.1439C12.1151 27.1999 12.4512 27.2059 12.9937 27.2057C13.4917 27.2056 13.8283 27.1949 14.1002 27.1513C14.3825 27.1061 14.5895 27.0265 14.832 26.9019L14.832 26.9019M11.6444 19.3521L14.832 26.9019M14.832 26.9019C15.7009 26.4554 16.3981 25.7816 16.8054 24.9811L16.8055 24.981M14.832 26.9019L16.8055 24.981M16.8055 24.981C16.9551 24.6867 17.053 24.4551 17.1099 24.1853C17.1659 23.9195 17.1795 23.6292 17.1795 23.2223C17.1795 22.8153 17.1659 22.525 17.1099 22.2593C17.053 21.9894 16.9551 21.7578 16.8055 21.4635L16.8054 21.4635M16.8055 24.981L16.8054 21.4635M16.8054 21.4635C16.3951 20.6572 15.69 19.9782 14.8291 19.5502L16.8054 21.4635ZM9.62828 7.46896L4.99488 7.50129V7.49497V6.60483V5.7065H9.56629H14.2868L14.5795 5.98858C14.7756 6.17754 14.8651 6.38294 14.8731 6.57665C14.8811 6.77012 14.8091 6.97986 14.6302 7.18033L14.6302 7.18037L14.4026 7.43553L9.62828 7.46896ZM9.18735 11.9515H4.99488V11.1175V10.2834H9.18735H13.5291L13.7631 10.5091L13.7632 10.5092C13.857 10.5996 13.9095 10.6768 13.9418 10.7596C13.975 10.8449 13.9935 10.9537 13.9935 11.1175C13.9935 11.2812 13.975 11.39 13.9418 11.4753C13.9095 11.5582 13.857 11.6354 13.7632 11.7257L13.7631 11.7258L13.5291 11.9515H9.18735ZM0.751072 11.0732C0.736493 11.3953 0.870203 11.7006 1.10999 11.9696L2.76955 6.11558C2.57571 6.52558 2.58121 6.72082 2.7983 7.12528L2.57801 7.24349C2.57802 7.2435 2.57802 7.24351 2.57802 7.24351C2.86554 7.77928 3.4343 7.99497 4.18834 7.99497H4.49488V8.0048V8.88921V9.78345H3.23548H3.20291C2.48747 9.78344 2.08607 9.78343 1.82515 9.83243C1.68029 9.85963 1.56611 9.90338 1.45889 9.97359C1.36218 10.0369 1.27769 10.1184 1.19295 10.2L1.18728 10.2055L1.18726 10.2055C0.925851 10.4575 0.765619 10.7519 0.751072 11.0732ZM4.17622 5.2065C3.43799 5.2065 2.8021 5.46181 2.54354 6.00872L1.11003 11.9696C1.18181 12.0502 1.2578 12.134 1.3546 12.2013C1.45731 12.2727 1.57059 12.3174 1.71268 12.3481C1.97637 12.405 2.39279 12.4225 3.13036 12.4513L4.43513 12.5022L4.4949 17.7252L4.55739 23.186L4.55872 23.3018L4.64789 23.3757L4.99854 23.6661C4.99856 23.6661 4.99857 23.6662 4.99859 23.6662C5.15046 23.792 5.3033 23.8835 5.48941 23.9405C5.67113 23.9961 5.87047 24.0143 6.10818 24.0143H6.70759H6.93839L6.9568 23.7842L7.03241 22.8391L6.78321 22.8192L7.03241 22.8391C7.21924 20.5034 8.84228 18.4816 11.1145 17.7627C12.6764 17.2686 14.6561 17.4733 16.096 18.2789L16.2181 18.0607L16.096 18.2789C16.9064 18.7323 17.633 19.4892 18.1573 20.3711C18.6816 21.2533 18.9927 22.2424 18.9927 23.1493V23.7643V24.0143H19.2427H22.8672H26.4917H26.7417V23.7643V12.3821V1V0.75H26.4917H15.9251H5.35842H5.25753L5.1849 0.820023L4.87827 1.11565C4.80444 1.18677 4.72294 1.26619 4.66021 1.37556C4.59569 1.48804 4.56007 1.6147 4.53801 1.77495C4.49585 2.08116 4.49488 2.58915 4.49488 3.52395V5.2065H4.17622ZM28.6163 13.6468V13.8968H28.8663H34.58H40.2936H40.8967L40.4705 13.4701L39.8388 12.8378C37.4096 10.4057 35.9436 8.94593 35.0487 8.07867C34.6017 7.64542 34.2943 7.35716 34.0792 7.16865C33.8734 6.98818 33.7286 6.87712 33.6145 6.82813C33.5256 6.78991 33.3998 6.7657 33.2642 6.74733C33.1209 6.72791 32.9405 6.7119 32.7268 6.699C32.299 6.67315 31.725 6.65903 31.0229 6.65727L28.8669 6.65185L28.6163 6.65122V6.90185V10.2743V13.6468ZM28.6163 19.095V19.6437L29.0304 19.2836L29.499 18.876C30.5806 17.9356 31.7663 17.5096 33.3301 17.5117C34.2619 17.5128 35.0221 17.6341 35.7037 17.9009C36.3847 18.1673 37.0014 18.5844 37.6388 19.1956L37.8119 19.0151L37.6388 19.1956C38.7385 20.2498 39.3602 21.6615 39.3632 23.0873L39.3647 23.7949L39.3653 24.097L39.662 24.0399L40.0678 23.9617L40.0205 23.7162L40.0678 23.9617C40.2063 23.935 40.357 23.8797 40.49 23.8149C40.6211 23.7511 40.755 23.6685 40.8501 23.5769L40.8501 23.5769C40.9293 23.5006 41.002 23.4128 41.0536 23.2607C41.0997 23.125 41.1264 22.9454 41.1455 22.6888C41.184 22.1727 41.1962 21.2565 41.2135 19.5481L41.25 15.9378L41.2525 15.6853H41H34.9332H28.8663H28.6163V15.9353V17.5151V19.095ZM29.2677 24.1337C29.3331 24.4009 29.4462 24.6542 29.621 24.9964C30.0152 25.7681 30.5589 26.3549 31.2404 26.7364C31.9213 27.1175 32.725 27.2855 33.6271 27.2438C34.2223 27.2163 34.7305 27.1148 35.195 26.9094C35.66 26.7039 36.068 26.4001 36.4706 25.9854L36.2912 25.8113L36.4706 25.9854C38.3767 24.0216 37.7758 20.8194 35.2935 19.5943C34.865 19.3828 34.2423 19.255 33.6425 19.2118C33.0445 19.1687 32.4215 19.2062 31.9943 19.3595C30.2696 19.9783 29.1971 21.4488 29.1893 23.2305C29.1878 23.5973 29.202 23.8655 29.2677 24.1337Z" fill="white" stroke="white" stroke-width="0.5"/>
</svg>
