<svg width="26" height="26" viewBox="0 0 26 26" fill="none" xmlns="http://www.w3.org/2000/svg">
<path fill-rule="evenodd" clip-rule="evenodd" d="M16.5264 0.0891671C16.2438 0.182949 13.5392 1.73951 6.32068 5.96264L4.48397 7.0372L3.14931 7.06949C1.88729 7.09999 1.78938 7.11406 1.35208 7.3283C0.795013 7.60111 0.375667 8.06848 0.152629 8.66525C-0.00971396 9.09959 -0.0121518 9.23738 0.00978642 16.6835L0.032131 24.2598L0.221856 24.6258C0.474633 25.1133 0.891622 25.5346 1.3572 25.7728L1.73844 25.9679L12.2144 25.9897C23.8174 26.0139 23.1684 26.042 23.8991 25.4835C24.1498 25.2919 24.3536 25.0345 24.5226 24.696C24.7714 24.1976 24.7736 24.1818 24.7736 22.9047C24.7736 21.7247 24.7599 21.6027 24.6111 21.4536C24.456 21.2985 24.3392 21.2909 22.0719 21.2896C19.3614 21.288 18.9138 21.2288 17.9483 20.7444C17.1925 20.3651 16.3157 19.5162 15.9349 18.795C15.6091 18.1779 15.3478 17.1893 15.3496 16.5807C15.3552 14.801 16.3836 13.1308 17.9535 12.352C18.9582 11.8537 19.5004 11.7806 22.2218 11.7773C24.3691 11.7746 24.513 11.7652 24.6461 11.6181C24.7712 11.4796 24.7842 11.3041 24.7594 10.093C24.7347 8.87787 24.7118 8.68778 24.5563 8.39895C24.2274 7.78811 23.5768 7.28918 22.9353 7.15579C22.6398 7.0943 22.611 7.05054 20.92 4.09936C19.9764 2.4526 19.0837 0.96127 18.9361 0.785255C18.4042 0.151065 17.3003 -0.16786 16.5264 0.0891671ZM17.8291 1.36487C18.305 1.65931 18.2653 1.72088 17.1937 2.34873C16.648 2.66847 15.8723 3.12339 15.4701 3.35967C15.0679 3.59596 13.4774 4.52411 11.9356 5.42224L9.13243 7.05517L7.95427 7.05281C6.9096 7.05062 6.7991 7.03768 6.97924 6.93853C7.09096 6.87704 9.35555 5.56083 12.0117 4.01363C16.3889 1.46394 16.8749 1.20057 17.2023 1.20057C17.4229 1.20057 17.6669 1.2645 17.8291 1.36487ZM20.6163 5.95012C20.9441 6.52135 21.1965 7.00466 21.1771 7.02402C21.1577 7.04346 20.033 7.04964 18.6777 7.03777L16.2135 7.01621L18.0357 5.94572C19.0379 5.35692 19.8943 4.88337 19.939 4.89338C19.9837 4.90338 20.2885 5.37888 20.6163 5.95012ZM19.1875 13.1181C18.1799 13.3947 17.3856 14.054 16.9175 15.002C16.6556 15.5325 16.612 15.7046 16.5824 16.3243C16.5087 17.8673 17.2024 19.0419 18.5941 19.7308L19.1992 20.0302H22.0067H24.8142L25.1798 19.7862C25.432 19.6179 25.616 19.4033 25.7727 19.0949L26 18.6475L25.9759 16.4514C25.9496 14.0612 25.943 14.0248 25.4532 13.5343C24.9541 13.0348 24.9666 13.0367 22.1735 13.0181C20.1559 13.0046 19.5238 13.0258 19.1875 13.1181ZM20.6765 15.556C21.2781 15.9089 21.4368 16.6607 21.0302 17.2321C20.5856 17.8571 19.7364 17.8758 19.1739 17.2731C18.8799 16.9581 18.8444 16.3032 19.1006 15.9227C19.3188 15.5986 19.7465 15.3536 20.0944 15.3535C20.2246 15.3534 20.4865 15.4445 20.6765 15.556Z" fill="white"/>
</svg>
