<svg width="35" height="35" viewBox="0 0 35 35" fill="none" xmlns="http://www.w3.org/2000/svg">
<path fill-rule="evenodd" clip-rule="evenodd" d="M27.8881 0.0728345C25.5659 0.462683 23.5718 2.57529 23.4025 4.82519C23.2516 6.83004 23.3579 6.61205 21.7211 8.27392L20.2372 9.78066L20.6478 10.2057L21.0584 10.6307L21.6206 10.3002C22.051 10.0471 22.3412 9.9706 22.8589 9.97392C23.7504 9.97946 24.1775 10.2203 25.3811 11.3963L26.3687 12.3612L26.9104 11.8074C27.5143 11.1901 27.9822 11.0129 29.0114 11.012C30.3901 11.0105 31.9061 10.3119 32.9166 9.21194C33.8726 8.17132 34.4835 6.2954 34.2845 5.01132L34.203 4.48566L32.5493 6.14925C30.666 8.04375 30.9651 7.92836 28.7464 7.61564C27.8164 7.48463 27.2677 7.3482 27.135 7.21497C27.0022 7.08186 26.8663 6.53135 26.7357 5.59837C26.4247 3.37775 26.3066 3.68259 28.2237 1.75562C29.6919 0.279753 29.8669 0.0625009 29.5878 0.0625009C29.4116 0.0625009 29.1089 0.0393734 28.915 0.0110789C28.7211 -0.0172155 28.259 0.0105867 27.8881 0.0728345ZM15.1693 7.98765C14.6966 8.38673 14.5642 8.90107 14.8129 9.37224C14.9136 9.56328 15.7873 10.5088 16.7543 11.4734L18.5124 13.2273L19.3665 12.3639L20.2205 11.5005L18.3739 9.6478C16.7344 8.00303 16.4724 7.78775 16.0399 7.72956C15.6369 7.67531 15.4867 7.71984 15.1693 7.98765ZM12.182 10.0618C11.8867 10.2893 11.7022 10.7053 11.7022 11.144C11.7022 11.4791 11.8927 11.7343 12.9591 12.8277C13.6503 13.5364 14.573 14.4833 15.0093 14.932C15.9997 15.95 16.3246 16.1762 16.7982 16.1772C17.4638 16.1786 17.6171 15.9573 17.6364 14.9667L17.6537 14.0823L15.559 11.9932C13.4742 9.91389 13.4618 9.90405 12.9205 9.90799C12.6214 9.91008 12.2891 9.97934 12.182 10.0618ZM22.0513 11.488C21.7883 11.6827 20.9483 12.4811 20.1846 13.2622C18.9958 14.4782 18.8018 14.7319 18.8358 15.0265C18.8624 15.2565 19.0177 15.4671 19.3047 15.6622C19.937 16.092 20.7499 16.0004 21.6175 15.4015C22.133 15.0459 22.3926 14.9478 22.8192 14.9478C24.0628 14.9478 24.8999 15.9684 24.638 17.1651C24.5909 17.3803 24.2762 17.8622 23.9387 18.2362C23.1783 19.0785 22.8666 19.7482 22.8641 20.5452C22.8609 21.5019 23.07 22.0405 23.7267 22.7682C24.0597 23.137 24.3321 23.5449 24.3321 23.6747C24.3321 23.9856 24.0109 24.2973 23.6908 24.2973C23.3379 24.2973 22.4143 23.2776 22.0195 22.452C21.7385 21.865 21.6961 21.6208 21.6988 20.6067C21.7025 19.2209 21.9319 18.6356 22.8789 17.5962C23.4778 16.9387 23.598 16.5979 23.3266 16.3257C23.0762 16.0745 22.6659 16.1606 22.0131 16.6013C21.0882 17.2258 19.8626 17.3364 18.947 16.8781C18.6043 16.7066 18.551 16.7103 18.2797 16.9245C18.1175 17.0526 17.8463 17.21 17.6773 17.2746C17.3825 17.3869 17.3723 17.4251 17.4335 18.1893C17.4863 18.8505 17.4502 19.0844 17.2212 19.5587C16.9214 20.1801 16.2993 20.6746 15.6548 20.8039C15.2636 20.8824 15.2582 20.8931 15.2582 21.5822C15.2582 22.9195 14.2381 23.9283 12.8858 23.9283C12.0033 23.9283 11.6263 23.7025 10.2383 22.3429L8.95825 21.0891L7.96981 22.073C6.84613 23.1915 6.43474 23.4035 5.36525 23.4143C2.72291 23.4412 0.481669 25.4265 0.0608383 28.113C-0.399844 31.0526 1.81418 34.0178 4.72395 34.3587C6.48624 34.5652 8.0039 34.0889 9.26002 32.9352C10.3637 31.9214 10.9628 30.5772 10.9817 29.0718C10.9871 28.6448 11.0706 28.1017 11.1672 27.8649C11.2809 27.5867 13.0227 25.7475 16.0897 22.6673C20.011 18.7292 20.8942 17.9003 21.1697 17.9003C21.494 17.9003 21.7571 18.1836 21.7571 18.5329C21.7571 18.6191 20.2541 20.2011 18.4173 22.0484L15.0775 25.4072L18.5399 28.8809L22.0023 32.3546L25.8855 28.4587L29.7688 24.5628L29.2597 23.7789C28.3897 22.4391 28.2699 21.9062 27.7001 16.8409C27.5679 15.6655 27.0584 14.8497 25.3732 13.1158C23.3509 11.0348 22.9376 10.8324 22.0513 11.488ZM10.6121 13.5203C10.2269 13.7345 9.99525 14.1713 9.98985 14.6941C9.98593 15.0793 10.1778 15.3109 12.1563 17.3069C14.5311 19.7028 14.8306 19.9023 15.5431 19.5632C16.0088 19.3415 16.2392 18.943 16.2392 18.3594C16.2392 18.0168 15.9576 17.6865 13.9365 15.6588C11.4775 13.1917 11.3502 13.1099 10.6121 13.5203ZM8.09587 16.8026C7.88141 17.0582 7.77841 17.3265 7.77841 17.6294C7.77841 18.0472 7.93511 18.2349 10.0811 20.3879C12.0967 22.4101 12.4321 22.6981 12.7707 22.6981C13.4127 22.6981 13.7846 22.4875 13.9827 22.0117C14.2944 21.2632 14.1053 20.9778 11.7238 18.6019L9.54094 16.4241H8.97714C8.49806 16.4241 8.36563 16.481 8.09587 16.8026ZM26.7405 29.3238L21.9778 34.1031L22.2966 34.4229C22.4719 34.5988 22.6154 34.8007 22.6154 34.8714C22.6154 34.9592 24.5817 35 28.8077 35H35V31.3709C35 28.5706 34.9654 27.7419 34.8483 27.7419C34.7649 27.7419 33.9782 27.0224 33.0999 26.1431L31.5031 24.5445L26.7405 29.3238ZM6.52928 25.3522C7.45236 25.5941 8.30003 25.8848 8.41296 25.9981C8.61933 26.2051 9.49508 29.326 9.49508 29.8542C9.49508 30.2195 6.85483 32.9076 6.49286 32.911C6.01354 32.9153 2.80973 32.0094 2.6155 31.8144C2.422 31.6204 1.51805 28.4062 1.52247 27.9284C1.5259 27.5647 4.20183 24.9124 4.5654 24.9124C4.72247 24.9124 5.6062 25.1103 6.52928 25.3522ZM3.76616 27.158L2.76448 28.1724L3.13234 29.5222C3.33479 30.2646 3.51111 30.8804 3.52423 30.8907C3.53723 30.901 4.15499 31.0795 4.89684 31.2873L6.24566 31.6651L7.25506 30.6569L8.26459 29.6487L7.88668 28.2775L7.50889 26.9063L6.32548 26.5807C5.67462 26.4016 5.05784 26.2299 4.95496 26.1993C4.83945 26.1649 4.38466 26.5316 3.76616 27.158Z" fill="white"/>
</svg>
