<svg width="27" height="27" viewBox="0 0 27 27" fill="none" xmlns="http://www.w3.org/2000/svg">
<path fill-rule="evenodd" clip-rule="evenodd" d="M13.0517 0.162045C12.926 0.260453 12.562 0.888798 12.184 1.66011C11.8259 2.39083 11.5243 2.99757 11.5138 3.00837C11.5034 3.01926 10.8291 3.12459 10.0155 3.24258C9.20202 3.36048 8.45231 3.4924 8.34956 3.53569C8.09238 3.64406 7.87288 4.09129 7.94042 4.3693C7.9719 4.49842 8.47114 5.07157 9.12727 5.73165L10.2598 6.87103L10.0003 8.35407C9.84797 9.22422 9.76456 9.93156 9.79842 10.0658C9.85909 10.3064 10.2922 10.6259 10.5584 10.6264C10.6438 10.6266 11.3295 10.3039 12.0822 9.90936C12.8348 9.5148 13.4728 9.19198 13.5 9.19198C13.5272 9.19198 14.1652 9.5148 14.9178 9.90936C15.6705 10.3039 16.3562 10.6266 16.4416 10.6264C16.7078 10.6259 17.1409 10.3064 17.2016 10.0658C17.2354 9.93156 17.152 9.22422 16.9997 8.35407L16.7402 6.87103L17.8727 5.73165C18.5289 5.07157 19.0281 4.49842 19.0596 4.3693C19.1271 4.09146 18.9078 3.64431 18.6504 3.5351C18.5477 3.49147 17.7973 3.35888 16.9829 3.24039C16.1685 3.12197 15.4943 3.0169 15.4846 3.00685C15.475 2.9969 15.1741 2.39083 14.816 1.66011C14.438 0.888798 14.074 0.260453 13.9483 0.162045C13.6722 -0.0540149 13.3278 -0.0540149 13.0517 0.162045ZM3.84099 4.31477C3.71236 4.379 3.4663 4.7636 3.14116 5.40866C2.76248 6.16006 2.59304 6.41393 2.44871 6.44583C2.34359 6.46912 1.86801 6.54356 1.39193 6.61125C0.191672 6.78182 0.00916373 6.9058 0.00916373 7.55043C0.00916373 7.83308 0.0828969 7.93141 0.825317 8.63816L1.64139 9.41513L1.4554 10.5196C1.28316 11.5425 1.27934 11.6431 1.40381 11.8824C1.70494 12.4616 2.0473 12.4485 3.25579 11.8117L4.21033 11.3087L5.18549 11.8087C5.72181 12.0837 6.26857 12.3101 6.40051 12.3118C6.70342 12.3155 7.1364 11.9039 7.1364 11.6122C7.1364 11.4972 7.06131 10.9661 6.9695 10.432L6.80261 9.46095L7.55682 8.72686C8.38477 7.92094 8.55421 7.64158 8.43347 7.28137C8.29949 6.88141 8.01381 6.75143 6.89441 6.58087C6.32024 6.49343 5.83873 6.40903 5.82439 6.39325C5.80997 6.37755 5.58733 5.94493 5.32956 5.43187C5.07179 4.91881 4.80359 4.45175 4.7335 4.39386C4.54955 4.24202 4.07177 4.19974 3.84099 4.31477ZM22.409 4.31925C22.2676 4.38871 22.0355 4.7328 21.7126 5.35186C21.4463 5.86247 21.2154 6.314 21.1996 6.35519C21.1838 6.39637 20.6982 6.49849 20.1204 6.58196C18.9903 6.74527 18.7028 6.87474 18.5665 7.28137C18.445 7.64386 18.6203 7.93157 19.4459 8.72483L20.1994 9.44897L20.0315 10.426C19.9392 10.9634 19.8636 11.4972 19.8636 11.6122C19.8636 11.9039 20.2966 12.3155 20.5995 12.3118C20.7314 12.3101 21.2782 12.0837 21.8145 11.8087L22.7897 11.3087L23.7442 11.8117C24.9527 12.4485 25.2951 12.4616 25.5962 11.8824C25.7207 11.6431 25.7168 11.5425 25.5448 10.5208L25.359 9.41766L26.1749 8.64221C26.9199 7.93411 26.9908 7.83941 26.9908 7.55322C26.9908 6.90555 26.8095 6.78199 25.6081 6.61125C25.132 6.54356 24.6564 6.46912 24.5513 6.44583C24.407 6.41393 24.2376 6.16023 23.8593 5.40959C23.2658 4.23189 22.9974 4.0301 22.409 4.31925ZM3.19096 16.0465C2.07801 16.4376 1.38447 17.6364 1.61958 18.7628C1.7533 19.4037 2.22463 20.0388 2.80915 20.3659C3.22278 20.5974 3.35294 20.627 3.9546 20.627C4.55625 20.627 4.68641 20.5974 5.10005 20.3659C5.99078 19.8674 6.49037 18.8129 6.29012 17.8535C6.11551 17.0168 5.53947 16.3437 4.7654 16.0721C4.35016 15.9264 3.56913 15.9137 3.19096 16.0465ZM12.5667 16.119C11.4197 16.634 10.8592 17.9251 11.2665 19.1141C11.4701 19.7085 12.146 20.3613 12.7393 20.5365C13.6899 20.8174 14.4854 20.6294 15.1522 19.9662C16.107 19.0163 16.1177 17.5572 15.1766 16.6419C14.6736 16.1528 14.178 15.9475 13.5 15.9475C13.1275 15.9475 12.8245 16.0032 12.5667 16.119ZM22.2818 16.0465C21.1688 16.4376 20.4753 17.6364 20.7104 18.7628C20.8441 19.4037 21.3154 20.0388 21.9 20.3659C22.3136 20.5974 22.4437 20.627 23.0454 20.627C23.6471 20.627 23.7772 20.5974 24.1909 20.3659C25.0816 19.8674 25.5812 18.8129 25.3809 17.8535C25.2063 17.0168 24.6303 16.3437 23.8562 16.0721C23.441 15.9264 22.6599 15.9137 22.2818 16.0465ZM0.879705 21.6482C0.669536 21.8664 0.397258 22.2577 0.274653 22.5179C0.0592239 22.975 0.0507392 23.0519 0.0257939 24.7732L0 26.5553L0.26566 26.7777L0.531234 27H4.21992H7.9086L7.88314 24.9955C7.85811 23.0331 7.85294 22.9811 7.63454 22.5179C7.51194 22.2577 7.23966 21.8664 7.02949 21.6482L6.6475 21.2516L6.11109 21.5965C5.41381 22.0448 4.80062 22.2229 3.9546 22.2229C3.10858 22.2229 2.49538 22.0448 1.7981 21.5965L1.26169 21.2516L0.879705 21.6482ZM10.4087 21.6856C10.1891 21.9191 9.90702 22.3275 9.78196 22.5929C9.55898 23.066 9.55406 23.1138 9.52648 25.0377L9.49848 27H13.5H17.5015L17.4735 25.0356L17.4454 23.0713L17.1743 22.5248C17.0251 22.2242 16.7298 21.8097 16.5181 21.6035L16.1333 21.2287L15.9409 21.398C15.3211 21.9434 14.5056 22.2171 13.5 22.2171C12.5864 22.2171 12.0314 22.0499 11.2842 21.5498C11.0469 21.3909 10.8426 21.2609 10.8303 21.2609C10.8181 21.2609 10.6284 21.452 10.4087 21.6856ZM19.9705 21.6482C19.7603 21.8664 19.4881 22.2577 19.3655 22.5179C19.1471 22.9811 19.1419 23.0331 19.1169 24.9955L19.0914 27H22.7801H26.4688L26.7343 26.7777L27 26.5553L26.9742 24.7732C26.9493 23.0519 26.9408 22.975 26.7253 22.5179C26.6027 22.2577 26.3305 21.8664 26.1203 21.6482L25.7383 21.2516L25.2019 21.5965C24.5046 22.0448 23.8914 22.2229 23.0454 22.2229C22.1994 22.2229 21.5862 22.0448 20.8889 21.5965L20.3525 21.2516L19.9705 21.6482Z" fill="white"/>
</svg>
