<svg width="27" height="27" viewBox="0 0 27 27" fill="none" xmlns="http://www.w3.org/2000/svg">
<path fill-rule="evenodd" clip-rule="evenodd" d="M24.4765 0.0876893C20.2157 0.53325 15.6684 2.7278 12.3196 5.95476L11.3424 6.89644L10.3749 6.99291C7.28539 7.30098 4.23219 8.63926 2.08817 10.6252C1.56043 11.114 1.4343 11.2784 1.4343 11.477C1.4343 11.7152 1.68395 12.0608 1.85615 12.0608C2.0497 12.0608 6.11255 12.6614 6.14613 12.6949C6.16621 12.7151 6.04447 12.8845 5.87556 13.0716C5.67914 13.2892 5.56845 13.4954 5.56845 13.6439C5.56845 13.8375 6.19574 14.5035 9.34436 17.6528C12.4871 20.7961 13.1591 21.4294 13.3517 21.4294C13.4994 21.4294 13.7061 21.3183 13.9231 21.1222C14.1101 20.9532 14.2791 20.831 14.2987 20.8506C14.3306 20.8825 14.9336 24.9619 14.9336 25.1457C14.9336 25.2954 15.3078 25.5652 15.5154 25.5652C15.9361 25.5652 17.3136 23.9386 18.1598 22.4423C19.2384 20.535 19.8311 18.5965 20.0434 16.2809L20.1014 15.6479L21.04 14.673C24.5687 11.0078 26.7483 6.17944 26.971 1.53418C27.0236 0.437031 27.0201 0.404874 26.8283 0.200536C26.6466 0.0071698 26.5766 -0.00793825 25.9081 0.00244325C25.5102 0.00860463 24.8659 0.0470073 24.4765 0.0876893ZM20.38 5.14171C20.9122 5.36993 21.5558 6.00413 21.8234 6.56397C22.1488 7.24443 22.1481 8.18501 21.8219 8.8674C21.5302 9.47763 21.0076 10.0026 20.4176 10.278C19.7531 10.5881 18.8013 10.5863 18.1272 10.2735C17.5203 9.99181 17.0017 9.47307 16.7202 8.86597C16.4055 8.18729 16.4055 7.2408 16.7202 6.56212C17.0908 5.76291 17.871 5.1401 18.727 4.96024C19.1602 4.86926 19.9457 4.95543 20.38 5.14171ZM4.75039 18.0914C3.27644 18.4249 2.54984 19.3257 1.4116 22.2313C0.868678 23.6171 0 26.2332 0 26.4825C0 26.6953 0.312002 27 0.529846 27C0.76853 27 3.41397 26.1183 4.76693 25.5879C6.44126 24.9315 7.559 24.3421 8.01519 23.8753C9.78107 22.0679 9.02401 18.9788 6.62308 18.1947C6.00667 17.9933 5.34521 17.9569 4.75039 18.0914Z" fill="white"/>
</svg>
