<svg width="41" height="42" viewBox="0 0 41 42" fill="none" xmlns="http://www.w3.org/2000/svg">
<g filter="url(#filter0_dd_258_3)">
<rect x="5" y="5" width="30.6667" height="30.6667" rx="4" fill="#E73670"/>
</g>
<path fill-rule="evenodd" clip-rule="evenodd" d="M25.7328 9.0437C24.3395 9.27761 23.1431 10.5452 23.0415 11.8951C22.9509 13.098 23.0147 12.9672 22.0327 13.9644L21.1423 14.8684L21.3887 15.1234L21.635 15.3784L21.9724 15.1801C22.2306 15.0283 22.4047 14.9824 22.7154 14.9844C23.2502 14.9877 23.5065 15.1322 24.2287 15.8378L24.8212 16.4167L25.1462 16.0844C25.5086 15.7141 25.7893 15.6078 26.4068 15.6072C27.2341 15.6063 28.1436 15.1871 28.7499 14.5272C29.3236 13.9028 29.6901 12.7772 29.5707 12.0068L29.5218 11.6914L28.5296 12.6896C27.3996 13.8263 27.579 13.757 26.2478 13.5694C25.6899 13.4908 25.3606 13.4089 25.281 13.329C25.2013 13.2491 25.1198 12.9188 25.0414 12.359C24.8548 11.0266 24.784 11.2096 25.9342 10.0534C26.8151 9.16785 26.9201 9.0375 26.7527 9.0375C26.647 9.0375 26.4653 9.02362 26.349 9.00665C26.2327 8.98967 25.9554 9.00635 25.7328 9.0437ZM18.1016 13.7926C17.818 14.032 17.7385 14.3406 17.8877 14.6233C17.9482 14.738 18.4724 15.3053 19.0526 15.884L20.1075 16.9364L20.6199 16.4184L21.1323 15.9003L20.0243 14.7887C19.0407 13.8018 18.8834 13.6726 18.6239 13.6377C18.3821 13.6052 18.292 13.6319 18.1016 13.7926ZM16.3092 15.0371C16.132 15.1736 16.0213 15.4232 16.0213 15.6864C16.0213 15.8874 16.1356 16.0406 16.7755 16.6966C17.1902 17.1219 17.7438 17.69 18.0056 17.9592C18.5998 18.57 18.7948 18.7057 19.0789 18.7063C19.4783 18.7072 19.5702 18.5744 19.5819 17.98L19.5922 17.4494L18.3354 16.1959C17.0845 14.9483 17.0771 14.9424 16.7523 14.9448C16.5728 14.946 16.3735 14.9876 16.3092 15.0371ZM22.2308 15.8928C22.073 16.0096 21.569 16.4886 21.1108 16.9573C20.3975 17.6869 20.2811 17.8392 20.3015 18.0159C20.3174 18.1539 20.4106 18.2803 20.5828 18.3973C20.9622 18.6552 21.4499 18.6002 21.9705 18.2409C22.2798 18.0275 22.4356 17.9687 22.6915 17.9687C23.4377 17.9687 23.94 18.581 23.7828 19.2991C23.7546 19.4282 23.5657 19.7173 23.3632 19.9417C22.907 20.4471 22.72 20.8489 22.7184 21.3271C22.7165 21.9012 22.842 22.2243 23.236 22.6609C23.4358 22.8822 23.5992 23.127 23.5992 23.2048C23.5992 23.3913 23.4066 23.5784 23.2145 23.5784C23.0027 23.5784 22.4486 22.9666 22.2117 22.4712C22.0431 22.119 22.0177 21.9725 22.0193 21.364C22.0215 20.5326 22.1592 20.1814 22.7273 19.5577C23.0867 19.1632 23.1588 18.9587 22.996 18.7954C22.8457 18.6447 22.5996 18.6963 22.2079 18.9608C21.6529 19.3355 20.9176 19.4018 20.3682 19.1269C20.1626 19.024 20.1306 19.0262 19.9678 19.1547C19.8705 19.2315 19.7078 19.326 19.6064 19.3648C19.4295 19.4322 19.4234 19.4551 19.4601 19.9136C19.4918 20.3103 19.4701 20.4506 19.3327 20.7352C19.1529 21.1081 18.7796 21.4048 18.3929 21.4824C18.1582 21.5295 18.1549 21.5359 18.1549 21.9493C18.1549 22.7517 17.5429 23.357 16.7315 23.357C16.202 23.357 15.9758 23.2215 15.143 22.4057L14.375 21.6535L13.7819 22.2438C13.1077 22.9149 12.8608 23.0421 12.2191 23.0486C10.6337 23.0647 9.289 24.2559 9.0365 25.8678C8.76009 27.6315 10.0885 29.4107 11.8344 29.6152C12.8917 29.7391 13.8023 29.4534 14.556 28.7611C15.2182 28.1529 15.5777 27.3463 15.589 26.4431C15.5923 26.1869 15.6424 25.861 15.7003 25.7189C15.7686 25.552 16.8136 24.4485 18.6538 22.6004C21.0066 20.2375 21.5365 19.7402 21.7018 19.7402C21.8964 19.7402 22.0542 19.9102 22.0542 20.1197C22.0542 20.1715 21.1525 21.1207 20.0504 22.229L18.0465 24.2443L20.1239 26.3285L22.2014 28.4128L24.5313 26.0752L26.8613 23.7377L26.5558 23.2673C26.0338 22.4635 25.9619 22.1437 25.62 19.1045C25.5407 18.3993 25.235 17.9098 24.2239 16.8695C23.0105 15.6209 22.7626 15.4994 22.2308 15.8928ZM15.3673 17.1122C15.1361 17.2407 14.9971 17.5028 14.9939 17.8164C14.9916 18.0476 15.1067 18.1865 16.2938 19.3841C17.7186 20.8217 17.8984 20.9414 18.3258 20.7379C18.6053 20.6049 18.7435 20.3658 18.7435 20.0156C18.7435 19.8101 18.5746 19.6119 17.3619 18.3953C15.8865 16.915 15.8101 16.866 15.3673 17.1122ZM13.8575 19.0816C13.7288 19.2349 13.667 19.3959 13.667 19.5777C13.667 19.8283 13.7611 19.941 15.0487 21.2327C16.258 22.446 16.4592 22.6188 16.6624 22.6188C17.0476 22.6188 17.2707 22.4925 17.3896 22.207C17.5767 21.7579 17.4632 21.5867 16.0343 20.1611L14.7246 18.8544H14.3863C14.0988 18.8544 14.0194 18.8886 13.8575 19.0816ZM25.0443 26.5943L22.1867 29.4618L22.378 29.6537C22.4832 29.7593 22.5692 29.8804 22.5692 29.9229C22.5692 29.9755 23.749 30 26.2846 30H30V27.8226C30 26.1424 29.9793 25.6451 29.909 25.6451C29.859 25.6451 29.3869 25.2135 28.8599 24.6859L27.9019 23.7267L25.0443 26.5943ZM12.9176 24.2113C13.4714 24.3564 13.98 24.5309 14.0478 24.5988C14.1716 24.7231 14.697 26.5956 14.697 26.9125C14.697 27.1317 13.1129 28.7445 12.8957 28.7466C12.6081 28.7492 10.6858 28.2056 10.5693 28.0886C10.4532 27.9722 9.91083 26.0437 9.91348 25.757C9.91554 25.5388 11.5211 23.9474 11.7392 23.9474C11.8335 23.9474 12.3637 24.0662 12.9176 24.2113ZM11.2597 25.2948L10.6587 25.9035L10.8794 26.7133C11.0009 27.1588 11.1067 27.5283 11.1145 27.5344C11.1223 27.5406 11.493 27.6477 11.9381 27.7724L12.7474 27.999L13.353 27.3942L13.9588 26.7892L13.732 25.9665L13.5053 25.1438L12.7953 24.9484C12.4048 24.8409 12.0347 24.738 11.973 24.7196C11.9037 24.6989 11.6308 24.919 11.2597 25.2948Z" fill="white"/>
<defs>
<filter id="filter0_dd_258_3" x="0" y="0" width="40.6666" height="41.6666" filterUnits="userSpaceOnUse" color-interpolation-filters="sRGB">
<feFlood flood-opacity="0" result="BackgroundImageFix"/>
<feColorMatrix in="SourceAlpha" type="matrix" values="0 0 0 0 0 0 0 0 0 0 0 0 0 0 0 0 0 0 127 0" result="hardAlpha"/>
<feOffset dx="1" dy="2"/>
<feGaussianBlur stdDeviation="2"/>
<feComposite in2="hardAlpha" operator="out"/>
<feColorMatrix type="matrix" values="0 0 0 0 0.192157 0 0 0 0 0.0235294 0 0 0 0 0.25098 0 0 0 0.16 0"/>
<feBlend mode="normal" in2="BackgroundImageFix" result="effect1_dropShadow_258_3"/>
<feColorMatrix in="SourceAlpha" type="matrix" values="0 0 0 0 0 0 0 0 0 0 0 0 0 0 0 0 0 0 127 0" result="hardAlpha"/>
<feOffset dx="-3" dy="-3"/>
<feGaussianBlur stdDeviation="1"/>
<feComposite in2="hardAlpha" operator="out"/>
<feColorMatrix type="matrix" values="0 0 0 0 1 0 0 0 0 1 0 0 0 0 1 0 0 0 1 0"/>
<feBlend mode="normal" in2="effect1_dropShadow_258_3" result="effect2_dropShadow_258_3"/>
<feBlend mode="normal" in="SourceGraphic" in2="effect2_dropShadow_258_3" result="shape"/>
</filter>
</defs>
</svg>
