<svg width="41" height="42" viewBox="0 0 41 42" fill="none" xmlns="http://www.w3.org/2000/svg">
<g filter="url(#filter0_dd_258_2)">
<rect x="5" y="5" width="30.6667" height="30.6667" rx="4" fill="#E73670"/>
</g>
<path fill-rule="evenodd" clip-rule="evenodd" d="M10.5517 12.8499C10.3675 13.029 10.3635 13.0585 10.3635 14.2297V15.4264H10.0147C9.58769 15.4264 9.27348 15.575 9.15198 15.8345C9.03308 16.0884 9.03646 16.2093 9.16961 16.4597C9.30713 16.7184 9.58485 16.8434 10.0222 16.8434H10.3635V17.552V18.2605H9.43775C8.51673 18.2605 8.51083 18.2617 8.28792 18.4785C8.00721 18.7517 7.99303 19.067 8.24859 19.3565C8.42835 19.5602 8.45871 19.5667 9.37926 19.603L10.3252 19.6403L10.3635 23.0218L10.4018 26.4032L10.6169 26.5831C10.7796 26.7192 10.9216 26.7631 11.1997 26.7631H11.5673L11.6137 26.1778C11.7333 24.6675 12.772 23.3629 14.224 22.8991C15.2225 22.5802 16.4806 22.7117 17.4004 23.2313C18.45 23.8241 19.2555 25.1923 19.2555 26.3823V26.7631H21.4785H23.7015V19.7149V12.6667H17.2207H10.7398L10.5517 12.8499ZM16.5018 15.6444C16.7901 15.9249 16.8055 16.2976 16.5409 16.5969L16.356 16.8062L13.3597 16.8273L10.3635 16.8484V16.1374V15.4264H13.3206H16.2778L16.5018 15.6444ZM25.158 18.4097V20.4981H28.6624H32.1667L31.7793 20.1065C28.799 17.0939 28.1865 16.4946 28.0097 16.4179C27.8753 16.3596 27.3388 16.3269 26.4803 16.3247L25.158 16.3214V18.4097ZM16.0011 18.4436C16.1396 18.5783 16.1893 18.7073 16.1893 18.9318C16.1893 19.1563 16.1396 19.2852 16.0011 19.4199L15.813 19.603H13.0882H10.3635V18.9318V18.2605H13.0882H15.813L16.0011 18.4436ZM25.158 22.8934V23.8717L25.4454 23.6193C26.1391 23.0104 26.903 22.7351 27.896 22.7365C29.0657 22.738 29.8407 23.0441 30.6446 23.8223C31.3471 24.5022 31.7475 25.4159 31.7494 26.3436L31.7503 26.7817L31.9993 26.7333C32.1361 26.7067 32.3172 26.6177 32.4017 26.5355C32.5474 26.3938 32.5564 26.2725 32.5776 24.1507L32.6 21.9152H28.879H25.158V22.8934ZM14.6472 24.1766C13.69 24.5247 13.0793 25.2845 12.9905 26.2379C12.907 27.1338 13.4182 28.0388 14.2729 28.5081C14.6627 28.7221 14.7497 28.7396 15.4228 28.7394C16.0346 28.7392 16.2036 28.7118 16.4802 28.5683C16.9877 28.3051 17.3904 27.91 17.624 27.4464C17.8026 27.0918 17.8367 26.9285 17.8367 26.4275C17.8367 25.9264 17.8026 25.7632 17.624 25.4086C17.3884 24.9412 16.9812 24.5436 16.4802 24.2922C16.0699 24.0862 15.0694 24.0231 14.6472 24.1766ZM27.1283 24.1812C26.1282 24.5435 25.5139 25.3981 25.5095 26.4332C25.5075 26.8812 25.5451 27.036 25.7574 27.4556C26.2169 28.3637 27.0111 28.8125 28.0709 28.7631C28.7738 28.7303 29.2389 28.5227 29.7119 28.0307C30.8056 26.893 30.4651 25.0337 29.0322 24.3197C28.5568 24.0829 27.5933 24.0127 27.1283 24.1812Z" fill="white"/>
<defs>
<filter id="filter0_dd_258_2" x="0" y="0" width="40.6666" height="41.6666" filterUnits="userSpaceOnUse" color-interpolation-filters="sRGB">
<feFlood flood-opacity="0" result="BackgroundImageFix"/>
<feColorMatrix in="SourceAlpha" type="matrix" values="0 0 0 0 0 0 0 0 0 0 0 0 0 0 0 0 0 0 127 0" result="hardAlpha"/>
<feOffset dx="1" dy="2"/>
<feGaussianBlur stdDeviation="2"/>
<feComposite in2="hardAlpha" operator="out"/>
<feColorMatrix type="matrix" values="0 0 0 0 0.192157 0 0 0 0 0.0235294 0 0 0 0 0.25098 0 0 0 0.16 0"/>
<feBlend mode="normal" in2="BackgroundImageFix" result="effect1_dropShadow_258_2"/>
<feColorMatrix in="SourceAlpha" type="matrix" values="0 0 0 0 0 0 0 0 0 0 0 0 0 0 0 0 0 0 127 0" result="hardAlpha"/>
<feOffset dx="-3" dy="-3"/>
<feGaussianBlur stdDeviation="1"/>
<feComposite in2="hardAlpha" operator="out"/>
<feColorMatrix type="matrix" values="0 0 0 0 1 0 0 0 0 1 0 0 0 0 1 0 0 0 1 0"/>
<feBlend mode="normal" in2="effect1_dropShadow_258_2" result="effect2_dropShadow_258_2"/>
<feBlend mode="normal" in="SourceGraphic" in2="effect2_dropShadow_258_2" result="shape"/>
</filter>
</defs>
</svg>
