<svg width="47" height="48" viewBox="0 0 47 48" fill="none" xmlns="http://www.w3.org/2000/svg">
<g filter="url(#filter0_dd_131_145)">
<rect x="3" y="3" width="39" height="39" rx="4" fill="#3A174E"/>
</g>
<path fill-rule="evenodd" clip-rule="evenodd" d="M23.028 15.4358C22.7047 15.2348 22.2954 15.2348 21.9721 15.4358L13.3768 20.7789C13.0833 20.9614 12.9048 21.2825 12.9048 21.6282V33.5714C12.9048 34.1237 13.3525 34.5714 13.9048 34.5714H18.0952C18.6475 34.5714 19.0952 34.1237 19.0952 33.5714V27.4092C19.0952 26.8569 19.5429 26.4092 20.0952 26.4092H24.2857C24.838 26.4092 25.2857 26.8569 25.2857 27.4092V33.5714C25.2857 34.1237 25.7334 34.5714 26.2857 34.5714H31.0953C31.6475 34.5714 32.0953 34.1237 32.0953 33.5714V21.6282C32.0953 21.2825 31.9168 20.9614 31.6232 20.7789L23.028 15.4358Z" fill="#F8F8F8"/>
<path fill-rule="evenodd" clip-rule="evenodd" d="M8.57141 19.1877C8.57141 18.9113 8.71419 18.6544 8.94899 18.5084L21.972 10.4129C22.2953 10.2119 22.7046 10.2119 23.0279 10.4129L36.051 18.5084C36.2858 18.6544 36.4286 18.9113 36.4286 19.1877C36.4286 19.8151 35.7392 20.1982 35.2064 19.867L23.0279 12.2965C22.7046 12.0955 22.2953 12.0955 21.972 12.2965L9.79354 19.867C9.26073 20.1982 8.57141 19.8151 8.57141 19.1877Z" fill="#F8F8F8"/>
<defs>
<filter id="filter0_dd_131_145" x="0" y="0" width="47" height="48" filterUnits="userSpaceOnUse" color-interpolation-filters="sRGB">
<feFlood flood-opacity="0" result="BackgroundImageFix"/>
<feColorMatrix in="SourceAlpha" type="matrix" values="0 0 0 0 0 0 0 0 0 0 0 0 0 0 0 0 0 0 127 0" result="hardAlpha"/>
<feOffset dx="1" dy="2"/>
<feGaussianBlur stdDeviation="2"/>
<feComposite in2="hardAlpha" operator="out"/>
<feColorMatrix type="matrix" values="0 0 0 0 0.121207 0 0 0 0 0.0147778 0 0 0 0 0.158333 0 0 0 1 0"/>
<feBlend mode="normal" in2="BackgroundImageFix" result="effect1_dropShadow_131_145"/>
<feColorMatrix in="SourceAlpha" type="matrix" values="0 0 0 0 0 0 0 0 0 0 0 0 0 0 0 0 0 0 127 0" result="hardAlpha"/>
<feOffset dx="-1" dy="-1"/>
<feGaussianBlur stdDeviation="1"/>
<feComposite in2="hardAlpha" operator="out"/>
<feColorMatrix type="matrix" values="0 0 0 0 0.313466 0 0 0 0 0.0415139 0 0 0 0 0.408333 0 0 0 1 0"/>
<feBlend mode="normal" in2="effect1_dropShadow_131_145" result="effect2_dropShadow_131_145"/>
<feBlend mode="normal" in="SourceGraphic" in2="effect2_dropShadow_131_145" result="shape"/>
</filter>
</defs>
</svg>
