<svg width="47" height="48" viewBox="0 0 47 48" fill="none" xmlns="http://www.w3.org/2000/svg">
<g filter="url(#filter0_dd_216_3)">
<rect x="3" y="3" width="39" height="39" rx="4" fill="#1B1736"/>
</g>
<path fill-rule="evenodd" clip-rule="evenodd" d="M16.2483 12.0838C15.0709 12.3416 14.3597 12.7326 13.5141 13.5872C12.8249 14.2836 12.4591 14.8827 12.1844 15.7647L12 16.3567V22.5075V28.6583L12.1844 29.2503C12.4653 30.1522 12.8227 30.7303 13.547 31.4541C14.2714 32.1779 14.8498 32.535 15.7524 32.8157L16.3448 33H22.5H28.6552L29.2476 32.8157C30.1502 32.535 30.7286 32.1779 31.453 31.4541C32.1773 30.7303 32.5347 30.1522 32.8156 29.2503L33 28.6583V22.5075V16.3567L32.8156 15.7647C32.5347 14.8628 32.1773 14.2847 31.453 13.5609C30.7285 12.837 30.1499 12.4798 29.2476 12.1995L28.6552 12.0154L22.6646 12.003C17.7048 11.9927 16.6007 12.0066 16.2483 12.0838ZM28.54 15.5455C29.1776 15.7059 29.6264 16.4205 29.4848 17.0502C29.3311 17.7339 28.7914 18.1376 28.0981 18.0874C27.4148 18.038 26.9727 17.5962 26.9232 16.9134C26.868 16.1504 27.3685 15.5784 28.1817 15.4754C28.2109 15.4717 28.3722 15.5032 28.54 15.5455ZM23.8166 18.3359C24.8075 18.6478 25.7535 19.3956 26.2705 20.2755C26.6936 20.9955 26.8602 21.6263 26.8602 22.5075C26.8602 23.3887 26.6936 24.0195 26.2705 24.7395C25.9526 25.2806 25.2751 25.9576 24.7336 26.2753C24.0131 26.6981 23.3819 26.8646 22.5 26.8646C21.6181 26.8646 20.9869 26.6981 20.2664 26.2753C19.7249 25.9576 19.0474 25.2806 18.7295 24.7395C18.3064 24.0195 18.1398 23.3887 18.1398 22.5075C18.1398 21.8727 18.1672 21.6663 18.3103 21.2247C18.541 20.5132 18.8919 19.9383 19.4117 19.4203C20.5875 18.2485 22.2438 17.8407 23.8166 18.3359Z" fill="#E73670"/>
<defs>
<filter id="filter0_dd_216_3" x="0" y="0" width="47" height="48" filterUnits="userSpaceOnUse" color-interpolation-filters="sRGB">
<feFlood flood-opacity="0" result="BackgroundImageFix"/>
<feColorMatrix in="SourceAlpha" type="matrix" values="0 0 0 0 0 0 0 0 0 0 0 0 0 0 0 0 0 0 127 0" result="hardAlpha"/>
<feOffset dx="1" dy="2"/>
<feGaussianBlur stdDeviation="2"/>
<feComposite in2="hardAlpha" operator="out"/>
<feColorMatrix type="matrix" values="0 0 0 0 0.121207 0 0 0 0 0.0147778 0 0 0 0 0.158333 0 0 0 1 0"/>
<feBlend mode="normal" in2="BackgroundImageFix" result="effect1_dropShadow_216_3"/>
<feColorMatrix in="SourceAlpha" type="matrix" values="0 0 0 0 0 0 0 0 0 0 0 0 0 0 0 0 0 0 127 0" result="hardAlpha"/>
<feOffset dx="-1" dy="-1"/>
<feGaussianBlur stdDeviation="1"/>
<feComposite in2="hardAlpha" operator="out"/>
<feColorMatrix type="matrix" values="0 0 0 0 0.313466 0 0 0 0 0.0415139 0 0 0 0 0.408333 0 0 0 1 0"/>
<feBlend mode="normal" in2="effect1_dropShadow_216_3" result="effect2_dropShadow_216_3"/>
<feBlend mode="normal" in="SourceGraphic" in2="effect2_dropShadow_216_3" result="shape"/>
</filter>
</defs>
</svg>
