<svg width="40" height="40" viewBox="0 0 40 40" fill="none" xmlns="http://www.w3.org/2000/svg">
<path fill-rule="evenodd" clip-rule="evenodd" d="M18.2664 0.0251821C16.5361 0.240042 14.2825 0.988416 12.7683 1.85074C8.33047 4.37829 5.45533 9.2283 5.45533 14.1871V15.4315L4.72037 15.7188C3.68579 16.1231 2.31749 17.13 1.65704 17.9731C-1.14634 21.5514 -0.301803 26.6332 3.50345 29.0834C4.63082 29.8093 5.85757 30.1878 7.1429 30.2062C8.16928 30.2207 8.33694 30.1882 9.0051 29.8439C9.85797 29.4046 10.5866 28.532 10.794 27.7016C10.8774 27.3679 10.928 25.4605 10.928 22.6501C10.928 18.417 10.9122 18.0935 10.676 17.4721C10.2632 16.3861 9.48048 15.6573 8.37823 15.3322L7.75634 15.1489L7.79564 14.0359C7.90373 10.975 9.0801 8.23009 11.225 6.03436C13.7775 3.42132 16.9438 2.17679 20.5523 2.36833C26.8124 2.70065 31.7489 7.74459 31.9709 14.0359L32.0102 15.1489L31.3883 15.3322C30.2861 15.6573 29.5034 16.3861 29.0906 17.4721C28.8542 18.0938 28.8386 18.416 28.8393 22.6743C28.8397 25.6018 28.8888 27.391 28.9774 27.7128C29.2894 28.8453 30.4391 29.9485 31.4827 30.1166C31.7417 30.1583 31.9785 30.2332 32.009 30.2829C32.1291 30.4787 31.7939 31.9937 31.484 32.6559C31.0697 33.5412 29.9745 34.6517 29.0873 35.0861C28.1749 35.5328 27.3449 35.6752 25.6531 35.6752H24.2429L24.0634 35.3305C23.7994 34.8233 22.9972 34.0858 22.4681 33.8637C21.7462 33.5606 17.891 33.5902 17.2091 33.9041C16.5758 34.1957 15.736 35.1135 15.5216 35.7484C15.0148 37.2488 15.6168 38.8356 17.0045 39.6578C17.5775 39.9972 17.6011 40 19.8833 40C22.1692 40 22.188 39.9977 22.7659 39.6554C23.3472 39.311 24.1122 38.5027 24.1122 38.233C24.1122 38.135 24.7275 38.0683 26.0711 38.0209C28.2029 37.9455 28.9164 37.7983 30.1771 37.1727C31.305 36.613 32.3226 35.7081 33.0407 34.6259C33.8039 33.4759 34.2144 32.2928 34.3048 30.9815L34.3734 29.986L34.9998 29.728C36.5309 29.0976 37.6162 28.2059 38.5322 26.8256C41.1139 22.9352 39.4676 17.5524 35.1523 15.7754L34.3144 15.4303L34.3127 14.1767C34.3084 10.6097 32.8048 6.99471 30.2253 4.34945C27.5425 1.59802 24.1831 0.11945 20.3808 0.0165327C19.4573 -0.0085384 18.5058 -0.00465258 18.2664 0.0251821ZM15.4833 16.5676C14.6795 16.827 14.0778 17.2219 13.4942 17.873C12.7015 18.7572 12.483 19.3806 12.4829 20.7579C12.4827 22.5667 12.6468 22.8123 16.3187 26.5018L19.3353 29.5328H19.8833H20.4313L23.4479 26.5018C27.1198 22.8123 27.2838 22.5667 27.2837 20.7579C27.2836 19.3806 27.0651 18.7572 26.2724 17.873C24.694 16.1122 22.1838 15.9054 20.3497 17.3849L19.8833 17.7611L19.4169 17.3849C18.336 16.513 16.7034 16.1738 15.4833 16.5676ZM8.34714 18.0122C8.5454 18.2548 8.5648 18.6745 8.5648 22.7078V27.137L8.26405 27.4887C7.98706 27.8127 7.89589 27.8397 7.10957 27.8316C5.87287 27.8187 4.70035 27.2536 3.72086 26.1983C2.70419 25.103 2.41812 24.3369 2.4124 22.6944C2.40817 21.486 2.4272 21.3952 2.87645 20.4792C3.65071 18.9001 5.04276 17.8636 6.68705 17.6416C7.51591 17.5297 8.05025 17.6489 8.34714 18.0122ZM34.4559 18.0407C35.4795 18.4999 36.3443 19.3662 36.8901 20.4792C37.3394 21.3952 37.3584 21.486 37.3542 22.6944C37.3485 24.31 37.0614 25.0958 36.0911 26.1522C35.1182 27.2112 33.8849 27.8181 32.6784 27.8311C31.8683 27.8397 31.7809 27.8143 31.5025 27.4887L31.2018 27.137V22.7218C31.2018 17.8471 31.2007 17.8543 31.9805 17.6506C32.5293 17.5073 33.6665 17.6866 34.4559 18.0407ZM17.4308 18.9272C17.6509 19.0236 18.1652 19.4205 18.5738 19.8093C19.7257 20.9058 20.0803 20.8992 21.2908 19.7579C22.1257 18.9708 22.5255 18.7522 23.1302 18.7522C23.674 18.7522 24.423 19.1852 24.7215 19.6719C25.0303 20.1755 25.0701 21.1058 24.8046 21.6103C24.7066 21.7965 23.5592 23.0201 22.2548 24.3293L19.8833 26.7098L17.5118 24.3293C16.2074 23.0201 15.06 21.7965 14.962 21.6103C14.6966 21.1061 14.7362 20.1755 15.0447 19.6726C15.5305 18.8803 16.5764 18.5536 17.4308 18.9272ZM21.6161 36.1096C22.09 36.3565 22.2128 36.8719 21.8988 37.2957C21.6617 37.6159 21.6471 37.6182 19.8833 37.6182C18.1195 37.6182 18.1049 37.6159 17.8677 37.2957C17.5614 36.8822 17.6749 36.362 18.1253 36.1153C18.589 35.8614 21.1319 35.8572 21.6161 36.1096Z" fill="white"/>
</svg>
