<svg width="26" height="40" viewBox="0 0 26 40" fill="none" xmlns="http://www.w3.org/2000/svg">
<path fill-rule="evenodd" clip-rule="evenodd" d="M11.904 0.17504C10.6651 0.556072 9.65742 1.93164 9.65742 3.24183V3.7381H9.14937C8.50912 3.7381 7.99342 4.00001 7.80024 4.42351C7.71782 4.60413 7.65034 5.11568 7.65034 5.56021V6.3685H5.04063C2.48423 6.3685 2.41775 6.37514 1.779 6.69291C1.42035 6.8714 0.959228 7.2205 0.754255 7.46875C-0.0395458 8.43035 -0.00191277 7.64223 0.00109785 23.2692C0.00385759 37.3043 0.00724446 37.5024 0.259133 38.0585C0.571485 38.7486 1.1504 39.3692 1.81726 39.7292L2.31903 40H12.9189C23.1513 40 23.5358 39.9916 24.0084 39.7574C24.5885 39.47 25.2464 38.8397 25.5551 38.2757C25.7629 37.8961 25.7789 36.9616 25.8117 23.4035C25.8434 10.2085 25.8282 8.88829 25.6394 8.39077C25.3533 7.63685 24.7651 7.00881 24.0215 6.66298C23.4274 6.38679 23.2523 6.37088 20.7904 6.36975L18.1875 6.3685V5.43608C18.1875 4.64008 18.1447 4.45394 17.8951 4.16423C17.6581 3.88904 17.4684 3.81376 16.8916 3.76591L16.1804 3.70704L16.1777 3.1276C16.1719 1.92501 15.2656 0.673187 14.0796 0.230153C13.3062 -0.05894 12.7131 -0.0738454 11.904 0.17504ZM13.4665 2.61993C13.7087 2.81007 13.797 2.9942 13.797 3.30885V3.7381H12.9189C12.1343 3.7381 12.0408 3.7123 12.0408 3.49573C12.0408 3.06246 12.2817 2.60665 12.5721 2.49017C12.9962 2.32007 13.1048 2.33572 13.4665 2.61993ZM15.8041 7.49581V8.87364H12.9189H10.0337V7.49581V6.11798H12.9189H15.8041V7.49581ZM7.67116 9.70134C7.71444 10.5587 7.75433 10.6844 8.06818 10.9539L8.41704 11.2535H12.9356H17.4542L17.8208 10.8874C18.157 10.5517 18.1875 10.4475 18.1875 9.63482V8.74838H20.6265C23.0048 8.74838 23.0704 8.75527 23.2608 9.02683C23.4348 9.27471 23.4561 10.83 23.4561 23.2344V37.1636L23.1256 37.4231C22.7975 37.6807 22.7206 37.6827 12.8963 37.6827H2.99754L2.68971 37.3752L2.38175 37.0679V23.1586C2.38175 9.41638 2.38476 9.2464 2.63263 8.99889C2.86583 8.76604 3.05073 8.74838 5.25325 8.74838H7.62286L7.67116 9.70134ZM19.2538 15.1558C19.1158 15.2312 18.6254 15.6612 18.1642 16.1115L17.3255 16.93L16.874 16.5344C16.1398 15.8905 15.1937 16.0185 14.864 16.8063C14.5962 17.4464 14.7543 17.7894 15.7908 18.8183C16.5487 19.5707 16.8595 19.7952 17.2255 19.8544C17.6864 19.9292 17.7142 19.9088 19.3199 18.3224C20.8934 16.7677 20.9473 16.6972 20.9473 16.1871C20.9473 15.752 20.8798 15.6031 20.5613 15.3355C20.1546 14.9938 19.672 14.9274 19.2538 15.1558ZM5.25727 17.8825C4.78548 18.3536 4.76039 18.9795 5.19317 19.4822L5.49573 19.8336L8.53847 19.8715C10.6873 19.8981 11.6873 19.8653 11.9424 19.7598C12.7161 19.4398 12.8691 18.2921 12.2074 17.7723C11.8991 17.5301 11.7137 17.5164 8.75272 17.5164H5.62394L5.25727 17.8825ZM19.4419 21.6069C19.3385 21.6463 18.827 22.097 18.3054 22.6084L17.357 23.5382L17.114 23.2702C16.3172 22.391 15.1238 22.4881 14.8032 23.4583C14.6144 24.0292 14.7846 24.4012 15.6481 25.3052C16.4642 26.1599 16.8709 26.4096 17.4458 26.4096C17.7891 26.4096 18.0645 26.1928 19.3964 24.8733C20.8878 23.3961 20.9473 23.317 20.9473 22.8136C20.9473 21.976 20.1499 21.3368 19.4419 21.6069ZM5.56259 24.154C4.82863 24.4497 4.66643 25.4535 5.25727 26.0435L5.62394 26.4096H8.75272C11.6979 26.4096 11.9003 26.3948 12.2024 26.1576C12.6019 25.8438 12.7419 25.2616 12.5367 24.7671C12.2524 24.0818 11.9781 24.0289 8.75423 24.0376C7.14668 24.042 5.71049 24.0944 5.56259 24.154ZM18.297 29.1258L17.3065 30.0884L16.8648 29.661C16.5152 29.3226 16.3211 29.2335 15.9326 29.2335C15.0517 29.2335 14.5117 30.0512 14.861 30.8562C15.0892 31.3819 16.55 32.7773 17.0102 32.9092C17.611 33.0812 18.0022 32.8267 19.536 31.266C20.8816 29.8968 20.9473 29.8056 20.9473 29.3041C20.9473 28.5808 20.5308 28.1632 19.8096 28.1632C19.3285 28.1632 19.2101 28.2386 18.297 29.1258ZM5.68026 30.6776C4.87805 30.9175 4.60973 31.9575 5.18903 32.5815C5.59584 33.0201 6.09585 33.0747 9.26027 33.0264L11.9365 32.9856L12.3022 32.5765C12.7817 32.0404 12.7817 31.5509 12.3022 31.0148L11.9363 30.6057L9.00938 30.5816C7.39945 30.5683 5.90141 30.6115 5.68026 30.6776Z" fill="white"/>
</svg>
