<svg width="37" height="42" viewBox="0 0 37 42" fill="none" xmlns="http://www.w3.org/2000/svg">
<path fill-rule="evenodd" clip-rule="evenodd" d="M13.808 1.27475C13.5999 1.49899 13.5541 1.71511 13.5541 2.47382C13.5541 3.32953 13.5329 3.40477 13.2739 3.46965C12.7539 3.60001 10.2512 4.94945 9.51 5.49905C6.95419 7.39445 4.88682 10.2406 3.92486 13.188C3.41723 14.7432 3.20918 15.9242 3.13173 17.6898L3.06039 19.3167L2.17674 19.694C1.59715 19.9413 1.23818 20.1772 1.13359 20.3794C1.0168 20.6053 0.983062 21.3168 1.00747 23.0426C1.04009 25.3477 1.04706 25.4026 1.3348 25.6362C1.54273 25.8052 1.82487 25.8749 2.29975 25.8749H2.97074V26.851C2.97074 28.3046 2.96962 28.3037 5.00797 28.3531L6.69234 28.3939L6.90326 29.0405C7.0193 29.3963 7.27455 30.0091 7.4704 30.4023C7.66638 30.7957 7.82663 31.1758 7.82663 31.2469C7.82663 31.3182 7.32236 31.888 6.70604 32.5132C5.86958 33.3617 5.58545 33.7328 5.58545 33.9767C5.58545 34.2318 6.01588 34.7355 7.55084 36.2763C9.19898 37.9308 9.57537 38.2493 9.88303 38.2493C10.1787 38.2493 10.4689 38.0303 11.3793 37.1203L12.5087 35.9911L13.4553 36.4242C13.9759 36.6624 14.6313 36.9263 14.9119 37.0106L15.4217 37.164V38.5629C15.4217 40.1509 15.5636 40.7145 16.0054 40.8831C16.1727 40.9469 17.4469 40.9992 18.837 40.9992C22.179 40.9992 22.0201 41.1072 22.0225 38.8339L22.0242 37.1869L22.7088 36.9686C23.0854 36.8486 23.7597 36.5712 24.2073 36.3522L25.021 35.9538L26.1691 37.1016C27.0882 38.0205 27.3893 38.2493 27.6786 38.2493C27.9768 38.2493 28.3545 37.9373 29.8343 36.4682C31.6581 34.6574 32.0477 34.1555 31.9266 33.7729C31.8894 33.6552 31.358 33.0582 30.7457 32.4462L29.6323 31.3338L29.9537 30.6981C30.1305 30.3483 30.3979 29.6966 30.5482 29.2498L30.8214 28.4373L32.2419 28.4066C34.5329 28.3569 34.5963 28.3156 34.5963 26.866V25.8749H35.2811C35.7999 25.8749 36.0263 25.8143 36.2149 25.6249C36.4471 25.3918 36.4639 25.2083 36.4639 22.8989C36.4639 21.1075 36.4208 20.3681 36.3083 20.2242C36.2227 20.1148 35.7604 19.8548 35.2811 19.6465L34.4095 19.2676L34.3353 17.4777C34.2341 15.0386 33.8058 13.3052 32.7937 11.2401C31.1483 7.88268 28.4312 5.28206 25.0122 3.79225L24.0752 3.38402L24.0057 2.42557C23.8955 0.907145 24.2448 1.00114 18.7123 1.00114C14.0886 1.00114 14.0603 1.00277 13.808 1.27475ZM22.2698 9.50073V16.3754H18.7212H15.1727V9.50073V2.62606H18.7212H22.2698V9.50073ZM13.8387 17.8397C14.0443 18.0461 14.4166 18.0628 18.7835 18.0628C23.1504 18.0628 23.5227 18.0461 23.7283 17.8397C23.9341 17.6332 23.9553 17.1514 24.0129 11.3714L24.0752 5.12631L24.8392 5.48905C27.4399 6.72399 29.8356 9.05012 31.1589 11.6256C32.2876 13.8221 32.6631 15.3586 32.8018 18.347C32.9017 20.5022 32.8628 20.4211 34.036 20.9137L34.783 21.2274L34.818 22.7392L34.853 24.251L18.7562 24.2193L2.65946 24.1875V22.7501V21.3126L3.56714 20.8752C4.0663 20.6346 4.52774 20.3533 4.59248 20.2502C4.6571 20.1471 4.71139 19.5284 4.71301 18.8753C4.71462 18.2222 4.77053 17.2097 4.83727 16.6254C5.38262 11.8522 8.28756 7.67319 12.4958 5.60817L13.4918 5.11944L13.5541 11.368C13.6117 17.1512 13.6329 17.6332 13.8387 17.8397ZM12.174 26.5644C12.9404 30.0022 16.5199 32.3864 19.9087 31.7161C22.6566 31.1727 24.7174 29.2404 25.301 26.6598L25.4643 25.9374L29.221 25.9043L32.9776 25.8713V26.3105V26.7499H31.4304C29.907 26.7499 29.879 26.755 29.625 27.0792C29.483 27.2604 29.3668 27.4863 29.3668 27.5816C29.3668 27.923 28.7406 29.5449 28.3109 30.3162C27.6578 31.4887 27.6904 31.6233 28.9311 32.8746L29.9894 33.942L28.8097 35.1213L27.6299 36.3008L26.5223 35.2126C25.8709 34.5728 25.3112 34.1245 25.1636 34.1245C25.0256 34.1245 24.444 34.373 23.8714 34.6767C23.2986 34.9805 22.34 35.3776 21.741 35.5591C21.0424 35.7709 20.6072 35.9733 20.527 36.1237C20.4584 36.2525 20.4021 37.0366 20.4021 37.8661V39.3743H18.7835H17.1649V37.8813C17.1649 36.0486 17.0797 35.9129 15.6708 35.5018C15.1572 35.3521 14.2684 34.9809 13.6957 34.677C13.123 34.3731 12.5134 34.1245 12.3411 34.1245C12.116 34.1245 11.7247 34.4224 10.9492 35.1842L9.87058 36.2438L8.72385 35.0879L7.57723 33.9319L8.63569 32.8748C9.4348 32.0769 9.69428 31.7361 9.69428 31.4853C9.69428 31.3024 9.44663 30.6824 9.14394 30.1076C8.84126 29.5326 8.46947 28.6404 8.31782 28.1248C7.91105 26.742 7.94441 26.7633 6.10005 26.7223C4.70031 26.6911 4.52549 26.6629 4.48702 26.4614C4.37422 25.8711 4.34869 25.8749 8.30089 25.8749H12.0204L12.174 26.5644ZM23.7639 26.1707C23.7639 26.3333 23.5654 26.8645 23.323 27.3511C22.8108 28.3789 21.9891 29.1878 20.9241 29.7129C20.2729 30.0338 20.0991 30.0622 18.7835 30.0622C17.4516 30.0622 17.2996 30.0366 16.6053 29.695C15.254 29.03 14.2932 27.9123 13.8857 26.5311L13.692 25.8749H18.728H23.7639V26.1707Z" fill="white" stroke="white"/>
</svg>
