<svg width="35" height="40" viewBox="0 0 35 40" fill="none" xmlns="http://www.w3.org/2000/svg">
<path fill-rule="evenodd" clip-rule="evenodd" d="M14.0646 0.14595C13.5153 0.393177 13.2326 1.02522 13.2326 2.00583C13.2326 3.02723 12.8251 4.2151 11.942 5.76799C11.5237 6.50338 10.8357 7.77896 10.4129 8.60274L9.6443 10.1003L9.37486 9.47184C9.22676 9.12607 9.00674 8.50152 8.88582 8.08395C8.61411 7.14465 8.2638 6.68456 7.73176 6.56796C7.08122 6.4253 6.62056 6.71879 5.77009 7.81774C2.37837 12.2004 0.595734 16.0738 0.0979839 20.1416C0.00893254 20.8693 -0.0246794 22.0973 0.0191097 23.0164C0.153423 25.8269 0.670324 27.8364 1.91102 30.3703C4.27215 35.1928 8.66245 38.5866 14.0361 39.7431C15.6241 40.085 19.1404 40.0857 20.7246 39.7446C23.1083 39.2313 25.1747 38.3662 27.1793 37.0426C28.4454 36.2066 30.9289 33.7268 31.7663 32.4626C34.2238 28.7521 35.1924 24.5757 34.608 20.2085C33.7715 13.9562 30.9278 8.57907 27.5321 6.82896C26.788 6.44535 26.7302 6.44041 26.1605 6.71036C25.6516 6.95144 25.5454 7.15254 25.1454 8.63229C24.9822 9.23678 24.8042 9.68203 24.75 9.6216C24.6959 9.56129 24.5787 9.21098 24.4896 8.84328C24.2114 7.69459 23.3128 5.71918 22.5431 4.56434C21.5819 3.1219 20.0992 1.74417 18.762 1.05062C17.0649 0.170553 14.9251 -0.241537 14.0646 0.14595ZM17.8771 3.58533C18.8075 4.14423 19.8927 5.30281 20.601 6.49309C21.5841 8.14559 22.4725 11.1325 22.4725 12.7857C22.4725 13.7264 22.602 14.2146 22.9511 14.5909C23.409 15.084 24.2112 15.057 24.8828 14.5259C25.5873 13.9689 26.5621 12.4966 27.0867 11.1973L27.5281 10.1044L28.1378 10.7815C29.29 12.061 30.455 14.4217 31.1934 16.9736C31.8261 19.16 32.0295 20.5568 32.0345 22.7489C32.0384 24.5183 31.9945 24.9279 31.6625 26.2254C29.122 36.1515 17.6809 40.5307 9.15819 34.839C5.7887 32.5888 3.3104 28.521 2.79149 24.3894C2.35239 20.8925 2.94495 17.721 4.65099 14.4376C5.38884 13.0175 6.78956 10.7854 6.94436 10.7831C6.98427 10.7826 7.17295 11.0999 7.36378 11.4883C7.91335 12.6072 9.27885 14.3284 9.82052 14.5851C10.2148 14.7719 10.3773 14.7841 10.765 14.6564C11.3806 14.4535 11.5804 14.1181 11.7586 12.9882C12.0396 11.207 12.3157 10.5122 13.6536 8.22006C15.0154 5.88699 15.4502 4.87241 15.833 3.13393L15.9126 2.77292L16.525 2.9569C16.8617 3.05812 17.4702 3.34091 17.8771 3.58533ZM12.4814 17.7389C11.5354 17.9393 10.9578 18.6727 10.9578 19.6737C10.9578 20.8425 11.7199 21.61 12.882 21.6115C14.0607 21.6131 14.8828 20.8169 14.8828 19.6737C14.8828 18.3835 13.7495 17.4704 12.4814 17.7389ZM21.6243 18.0357C21.4441 18.2013 19.7723 20.0815 17.9091 22.2141C16.0458 24.3468 13.8831 26.8137 13.103 27.6962C10.9616 30.1187 10.9561 30.1263 10.9561 30.6968C10.9561 31.6093 11.7213 32.1906 12.6242 31.9643C12.8852 31.8989 14.5139 30.1389 18.3996 25.723C23.6301 19.7792 23.8116 19.5545 23.8116 19.0289C23.8116 18.2489 23.2993 17.7349 22.5219 17.7349C22.117 17.7349 21.8569 17.8221 21.6243 18.0357ZM21.1334 28.1803C19.7556 28.7272 19.4243 30.5187 20.5228 31.4818C21.8789 32.6708 23.8116 31.7974 23.8116 29.9957C23.8116 28.6367 22.3978 27.6784 21.1334 28.1803Z" fill="white"/>
</svg>
