<svg width="40" height="40" viewBox="0 0 40 40" fill="none" xmlns="http://www.w3.org/2000/svg">
<path fill-rule="evenodd" clip-rule="evenodd" d="M8.98349 0.179168C8.37468 0.480242 8.17828 0.944675 8.17828 2.0833V3.07959L6.52389 3.14538C5.25769 3.19579 4.68309 3.27684 4.07465 3.49086C2.44624 4.06361 0.865898 5.66567 0.294793 7.32252L0 8.17808V21.5619V34.9458L0.294793 35.8014C0.863401 37.4513 2.42901 39.0426 4.07465 39.6438C4.83305 39.9208 5.05642 39.9363 8.94741 39.9819C13.4759 40.0349 13.5662 40.0215 14.0517 39.2237C14.3616 38.7147 14.3616 38.1816 14.0517 37.6725C13.5865 36.9081 13.4476 36.8846 9.39291 36.8846C5.18553 36.8846 4.87101 36.8302 3.99225 35.9497C3.00499 34.9608 3.05905 35.7939 3.05905 21.5619C3.05905 7.33002 3.00499 8.16307 3.99225 7.17417C4.6987 6.46645 5.41764 6.2393 6.95191 6.2393H8.17828V7.25197C8.17828 8.41899 8.37505 8.87805 9.00322 9.17674C9.69019 9.50333 10.3279 9.36987 10.8675 8.78649C11.1461 8.48554 11.1749 8.35007 11.1749 7.34678V6.2393H14.721H18.267L18.3107 7.3628C18.3521 8.4285 18.3744 8.50643 18.7449 8.87742C19.519 9.65256 20.8211 9.41828 21.2335 8.4295C21.3324 8.19247 21.4133 7.6027 21.4133 7.11888V6.2393H24.9595H28.5055L28.5492 7.3628C28.5904 8.4255 28.6136 8.50718 28.9789 8.87304C29.4709 9.36574 30.1591 9.47319 30.7778 9.15398C31.3968 8.83464 31.6514 8.24976 31.6515 7.14615L31.6518 6.2393H32.8782C34.4124 6.2393 35.1314 6.46645 35.8378 7.17417C36.3736 7.7109 36.771 8.60587 36.771 9.27593C36.771 10.1868 37.4384 10.8674 38.3318 10.8674C39.4134 10.8674 39.9783 10.1009 39.8449 8.81413C39.6583 7.01269 38.7749 5.45353 37.3152 4.34918C36.1787 3.48936 35.2971 3.22456 33.3062 3.14538L31.6518 3.07959L31.6515 2.18912C31.6514 1.10278 31.3936 0.515141 30.7778 0.197556C30.1591 -0.121656 29.4709 -0.0142097 28.9789 0.478491C28.6136 0.844358 28.5904 0.926037 28.5492 1.98874L28.5055 3.11223H24.9595H21.4133V2.23265C21.4133 1.74883 21.3324 1.15907 21.2335 0.922034C20.8211 -0.0667448 19.519 -0.301025 18.7449 0.474113C18.3744 0.845108 18.3521 0.923035 18.3107 1.98874L18.267 3.11223H14.721H11.1749V2.00475C11.1749 1.00146 11.1461 0.865998 10.8675 0.565049C10.3276 -0.0185875 9.65998 -0.155303 8.98349 0.179168ZM24.2851 13.5405C19.9695 14.3897 16.5309 16.945 14.6693 20.6864C11.3462 27.3654 14.0231 35.3109 20.7286 38.6716C21.6746 39.1457 23.7108 39.7345 24.9718 39.8984C27.6352 40.2449 31.1591 39.5372 33.0877 38.2685C33.7678 37.8211 34.0238 37.1231 33.7612 36.4319C33.5519 35.8813 32.9058 35.3836 32.4001 35.3836C32.2139 35.3836 31.6404 35.5785 31.1256 35.8167C29.4499 36.5924 28.4261 36.8184 26.595 36.817C24.7613 36.8155 23.8003 36.619 22.3279 35.9442C19.4971 34.6468 17.4631 32.2242 16.6587 29.192C16.291 27.8062 16.2888 25.5909 16.6535 24.1887C17.1952 22.1058 18.4926 20.0822 20.13 18.7657C21.1906 17.913 22.0371 17.4525 23.4137 16.9793C24.5302 16.5954 24.6998 16.572 26.4077 16.5655C27.9304 16.5598 28.3727 16.6035 29.1909 16.8411C30.2263 17.1418 31.6791 17.8247 32.4003 18.3497C32.9486 18.7488 34.5236 20.271 34.5236 20.4015C34.5236 20.455 33.9028 20.4987 33.1439 20.4987C32.1549 20.4987 31.6605 20.5525 31.398 20.6885C30.6261 21.0884 30.399 22.3036 30.9692 22.9825C31.465 23.5729 31.9305 23.6616 34.1943 23.5973C35.8903 23.5491 36.3228 23.496 36.9267 23.2613C37.9241 22.8741 38.9084 21.9417 39.4213 20.8985L39.8301 20.0669V17.5962V15.1256L39.4219 14.7163C39.0604 14.354 38.9356 14.3071 38.3318 14.3071C37.7283 14.3071 37.603 14.3542 37.2416 14.7157L36.8335 15.1243L36.7921 16.6073L36.7508 18.0901L35.8879 17.2376C34.2313 15.6009 32.1828 14.4237 29.9038 13.7989C28.4673 13.405 25.6355 13.2748 24.2851 13.5405ZM25.8292 20.6136C25.0667 21.0794 25.0343 21.2047 25.0343 23.6856V25.9412L23.9626 26.816C22.7772 27.7839 22.5371 28.1287 22.5371 28.8635C22.5371 29.8593 23.6355 30.6045 24.5408 30.2232C25.0748 29.9981 27.5151 27.9874 27.8118 27.528C28.0027 27.2323 28.0296 26.8386 28.0303 24.3388C28.031 21.1554 27.9841 20.9333 27.2372 20.5782C26.6759 20.3114 26.3088 20.3206 25.8292 20.6136ZM37.24 26.3787C36.7624 26.8571 36.7422 26.909 36.7997 27.5085C36.9321 28.8885 38.4453 29.4728 39.4027 28.5137C40.3812 27.5334 39.6412 25.8792 38.2234 25.8778C37.826 25.8774 37.6519 25.9661 37.24 26.3787ZM35.8297 31.828C34.683 32.223 34.4288 33.569 35.3483 34.3777C35.6956 34.6832 35.8935 34.7582 36.353 34.7582C36.8513 34.7582 36.9879 34.6954 37.4101 34.2726C37.7969 33.885 37.8948 33.6943 37.8948 33.3282C37.8948 32.184 36.8983 31.46 35.8297 31.828Z" fill="white"/>
</svg>
