<svg width="49" height="39" viewBox="0 0 49 39" fill="none" xmlns="http://www.w3.org/2000/svg">
<path d="M12.6882 9.70705L12.025 9.02846L11.9791 9.06088L11.7773 8.77494L12.0276 8.53031L12.0669 8.57051L25.4761 8.0189C25.2601 8.22061 24.8959 8.35641 24.4819 8.37889C24.07 8.40125 23.6676 8.30787 23.3907 8.12128C23.0363 7.88243 22.8233 7.63548 22.6889 7.29832C22.5484 6.94572 22.4831 6.46773 22.483 5.74565V5.74561C22.4829 5.39786 22.4765 5.07945 22.466 4.84589C22.4608 4.73014 22.4544 4.62997 22.4465 4.55591C22.4428 4.5208 22.4378 4.48088 22.43 4.44506C22.4267 4.42993 22.419 4.39658 22.4031 4.36012C22.3957 4.34331 22.3778 4.30475 22.3429 4.26497C22.3101 4.2275 22.2213 4.14387 22.0767 4.14387C22.0505 4.14387 22.0251 4.14719 22.0221 4.14759L22.0218 4.14762C22.012 4.14883 22.0008 4.15037 21.9893 4.15202C21.9661 4.15536 21.9354 4.16007 21.8988 4.16586C21.8254 4.17747 21.7238 4.19413 21.6018 4.21451C21.3576 4.2553 21.0291 4.31147 20.675 4.37318L20.6749 4.37318C17.9515 4.84801 14.977 6.08817 12.6933 7.69996L12.6932 7.69997L11.5754 8.489L11.2399 8.72584L11.527 9.01956L12.4379 9.95168L12.6882 9.70705ZM12.6882 9.70705L12.4379 9.95168C12.9756 10.5019 13.2568 10.8234 13.4104 11.0871C13.5484 11.3239 13.587 11.52 13.587 11.8506C13.587 13.0993 12.4044 13.9535 11.2107 13.56M12.6882 9.70705L11.2107 13.56M11.2107 13.56C11.1026 13.5243 10.8923 13.4061 10.6232 13.2126C10.3639 13.0263 10.0792 12.7914 9.82845 12.5508L8.89268 11.6526L8.59278 11.3647L8.36021 11.7093L7.58997 12.8505C6.03799 15.1497 4.9939 17.6384 4.42507 20.3912C4.40446 20.491 4.38451 20.5859 4.36557 20.6761C4.30388 20.9697 4.25292 21.2123 4.22493 21.4021C4.20637 21.5279 4.19469 21.6499 4.19993 21.7618C4.2052 21.8741 4.22844 22.0007 4.30049 22.1171C4.45591 22.3681 4.73398 22.4166 4.93182 22.4341C5.09428 22.4485 5.30615 22.4474 5.55122 22.4462C5.62439 22.4459 5.70051 22.4455 5.77916 22.4455C6.72975 22.4457 7.34797 22.598 7.73778 22.8721C8.10705 23.1317 8.32478 23.5397 8.38175 24.2004L8.38175 24.2004C8.41432 24.5776 8.35248 24.8976 8.21111 25.1692C8.06937 25.4416 7.83675 25.6861 7.49562 25.8939L7.49551 25.894C7.19215 26.079 6.91254 26.1445 5.83767 26.1449L4.49251 26.1455L4.08639 26.1457L4.14652 26.5474L4.25443 27.2681C4.62002 29.7106 5.50817 32.1874 6.86547 34.5662C7.08644 34.9535 7.29023 35.3465 7.43994 35.6659C7.51494 35.8259 7.57473 35.9639 7.61603 36.0715C7.65467 36.1722 7.66719 36.2215 7.67016 36.2332C7.67077 36.2357 7.67098 36.2365 7.67092 36.2358C7.70626 36.6583 7.69535 36.9166 7.64049 37.119C7.58825 37.3118 7.48813 37.4827 7.28577 37.7132C6.87665 38.179 6.36927 38.3889 5.87362 38.376C5.37643 38.3631 4.85695 38.1249 4.43206 37.6286C4.28142 37.4527 4.05898 37.1113 3.79399 36.6494C3.53281 36.1941 3.24127 35.6412 2.95247 35.057C2.37305 33.8849 1.81467 32.6068 1.536 31.7537C-1.26195 23.1883 0.976375 13.7967 7.34591 7.38081C9.23845 5.47452 11.0842 4.14705 13.562 2.91145C16.4232 1.48477 18.6873 0.819762 21.9624 0.445521L21.9227 0.097937L21.9624 0.445521C24.6365 0.139941 28.8204 0.58885 31.5868 1.48208L31.5869 1.48209C33.5104 2.10299 36.6078 3.67228 38.2851 4.87622C40.018 6.12015 42.3773 8.48426 43.6337 10.2362C49.207 18.0079 49.6614 28.236 44.7994 36.5273C44.3625 37.2723 44.017 37.7227 43.6821 37.9897C43.3652 38.2423 43.0424 38.3428 42.6068 38.3428C41.5622 38.3428 40.8218 37.6089 40.8218 36.6169C40.8218 36.1519 40.9306 35.8223 41.6218 34.6125C43.006 32.1904 43.8921 29.7301 44.2606 27.2681L44.3685 26.5474L44.4287 26.1457L44.0225 26.1455L42.6774 26.1449C41.6025 26.1445 41.3229 26.079 41.0195 25.894L41.0194 25.8939C40.6783 25.6861 40.4457 25.4416 40.3039 25.1692C40.1626 24.8976 40.1007 24.5776 40.1333 24.2004C40.1903 23.5397 40.408 23.1317 40.7773 22.8721C41.1671 22.598 41.7853 22.4457 42.7359 22.4455C42.8154 22.4455 42.8923 22.4459 42.9662 22.4463C43.2101 22.4475 43.421 22.4486 43.5829 22.4343C43.7808 22.4168 44.0588 22.3683 44.2143 22.1172C44.2863 22.0008 44.3096 21.8743 44.315 21.762C44.3204 21.65 44.309 21.5279 44.2906 21.4017C44.2631 21.212 44.2128 20.9697 44.1519 20.6763C44.133 20.585 44.1131 20.4888 44.0924 20.3877C43.5518 17.737 42.4423 15.0984 40.9205 12.8438L40.1549 11.7093L39.9223 11.3647L39.6224 11.6526L38.6866 12.5508C38.4358 12.7914 38.1511 13.0263 37.8919 13.2126C37.6227 13.4061 37.4124 13.5243 37.3043 13.56C36.1107 13.9535 34.928 13.0993 34.928 11.8506C34.928 11.52 34.9667 11.3239 35.1046 11.0871C35.2582 10.8234 35.5394 10.5019 36.0771 9.95168L35.8268 9.70705L36.0771 9.95168L36.9881 9.01956L37.2751 8.72584L36.9396 8.489L35.8218 7.69997L35.62 7.98591L35.8218 7.69996C33.287 5.91092 30.5477 4.82932 27.0861 4.24032L27.0274 4.58536L27.0861 4.24032L26.5928 4.15641L26.1841 4.08689V4.50146V5.795C26.1841 6.486 26.144 6.90215 26.0412 7.21359C25.944 7.50776 25.7824 7.73274 25.4761 8.01887L11.2107 13.56ZM8.90656 12.1511L8.94042 12.1009L8.65032 11.9051L8.40795 12.1576L8.45161 12.1995L7.88007 13.0463C6.354 15.3072 5.32756 17.7533 4.76783 20.4621C4.57715 21.3848 4.46806 21.7883 4.62085 21.9637C4.7569 22.12 5.10059 22.0954 5.77924 22.0955C7.72966 22.0958 8.60463 22.7109 8.73045 24.1703L8.90656 12.1511ZM23.9031 22.1057L23.9032 22.1057C24.0551 22.128 24.2236 22.1352 24.4346 22.0482C24.6203 21.9717 24.8202 21.8295 25.0735 21.614C25.5837 21.1799 26.4261 20.345 27.984 18.7887L27.7366 18.5411L27.984 18.7887C29.205 17.5688 30.0614 16.7382 30.6661 16.1938C30.9686 15.9215 31.2031 15.7253 31.3854 15.5893C31.5729 15.4496 31.685 15.389 31.7453 15.3675C31.8927 15.3149 32.0462 15.2746 32.1712 15.2521C32.234 15.2409 32.2836 15.2352 32.3182 15.2336C32.327 15.2332 32.3337 15.2331 32.3385 15.2331C32.4988 15.283 32.7459 15.3136 32.9231 15.3136C32.9409 15.3136 33.0154 15.3285 33.1473 15.4123C33.2694 15.4899 33.4069 15.605 33.541 15.7445C33.8188 16.0335 34.0254 16.3666 34.0769 16.5957C34.1451 16.8993 34.1735 17.0882 34.1508 17.2695C34.129 17.4431 34.055 17.6436 33.8491 17.9437C33.422 18.566 32.5205 19.4911 30.7156 21.3061L30.9637 21.5529L30.7156 21.3061L27.3851 24.6555L27.2842 24.7569L27.2833 24.9L27.2764 25.9143C27.2687 27.0493 26.9562 27.8179 26.2024 28.5848C24.3342 30.4851 21.079 29.8878 19.9765 27.428L19.6572 27.5712L19.9765 27.428C19.6963 26.8027 19.6225 26.027 19.7447 25.2755C19.867 24.5235 20.18 23.8294 20.6341 23.3573C21.5014 22.4557 22.8607 21.9526 23.9031 22.1057Z" fill="white" stroke="url(#paint0_linear_140_885)" stroke-width="0.7"/>
<defs>
<linearGradient id="paint0_linear_140_885" x1="24.2517" y1="0" x2="24.2517" y2="38.7266" gradientUnits="userSpaceOnUse">
<stop stop-color="#00A396"/>
<stop offset="1" stop-color="#008FA3"/>
</linearGradient>
</defs>
</svg>
