<svg width="41" height="37" viewBox="0 0 41 37" fill="none" xmlns="http://www.w3.org/2000/svg">
<path fill-rule="evenodd" clip-rule="evenodd" d="M16.9294 9.52564C16.9294 9.75 18.9487 11.7692 19.173 11.9936C20.0705 12.6667 20.9679 13.5641 21.641 14.2372C22.5384 15.1346 22.3141 14.6859 22.0897 16.032L21.1923 22.0897C21.1923 23.4359 22.7628 22.3141 23.4359 21.8654L28.3718 19.3974C28.3718 19.3974 31.9615 21.1923 32.4102 21.4167C33.0833 21.641 34.6538 22.7628 35.1025 22.7628C36 22.7628 35.5512 21.4167 35.3269 20.9679L34.4294 14.9103C34.8782 14.4615 38.0192 11.3205 38.4679 10.8718C38.9166 10.4231 39.5897 9.97436 39.5897 9.30128C39.5897 8.85256 38.4679 8.85256 38.0192 8.6282C37.3461 8.6282 36.673 8.6282 36 8.40385C35.3269 8.40385 32.6346 7.95513 31.9615 7.95513L29.0448 1.67308C28.8205 1.22436 28.8205 1 28.1474 1C27.923 1 26.8012 3.69231 26.3525 4.14103L24.782 7.50641C24.5576 7.95513 24.3333 7.95513 22.9871 8.17949C22.3141 8.17949 21.641 8.40385 20.7435 8.40385C20.0705 8.6282 19.3974 8.6282 18.7243 8.6282C18.0512 8.85256 16.9294 8.85256 16.9294 9.52564V9.52564Z" stroke="white" stroke-width="1.5" stroke-miterlimit="22.9256"/>
<path fill-rule="evenodd" clip-rule="evenodd" d="M1 35.1026C1 36.8975 2.57051 35.327 3.69231 34.4296L5.71154 33.0834C6.16026 32.6347 6.60897 32.186 7.05769 31.9616L9.75 35.1026C9.97436 35.327 10.4231 36.0001 10.8718 36.0001C11.5449 36.0001 11.3205 34.4296 11.5449 32.8591L12.2179 29.718C12.6667 27.4744 13.3397 25.6796 14.2372 23.8847C14.4615 23.436 14.6859 22.9873 14.9103 22.7629C16.2564 20.5193 17.8269 19.1732 20.0705 17.827C20.7436 17.6026 20.7436 17.827 20.9679 16.9296C20.9679 16.4809 21.1923 15.5834 21.1923 15.1347C20.7436 15.1347 18.7244 12.6667 18.5 12.6667C18.0513 12.6667 14.6859 14.0129 14.0128 14.4616C13.1154 14.9103 12.6667 15.1347 11.7692 15.8078C5.48718 19.8462 2.34615 25.6796 1.22436 32.6347C1.22436 33.3078 1 34.2052 1 35.1026V35.1026Z" stroke="white" stroke-width="1.5" stroke-miterlimit="22.9256"/>
<path fill-rule="evenodd" clip-rule="evenodd" d="M31.2885 24.7822V26.8014C30.3911 26.8014 28.8206 26.5771 28.8206 27.2502C28.8206 28.1476 30.1667 27.9232 31.2885 27.9232C31.2885 29.4938 31.0641 30.3912 31.9616 30.3912C32.859 30.3912 32.4103 29.4938 32.4103 27.9232C33.5321 27.9232 34.8782 28.1476 34.8782 27.4745C34.8782 26.5771 33.7565 26.8014 32.4103 26.8014C32.4103 24.7822 32.6347 24.3335 31.7372 24.3335C31.5129 24.3335 31.2885 24.5579 31.2885 24.7822Z" fill="white" stroke="white" stroke-width="1.5"/>
<path fill-rule="evenodd" clip-rule="evenodd" d="M6.609 5.71166V7.73089C5.48721 7.73089 4.14105 7.50653 4.14105 8.17961C4.14105 9.07704 5.03849 8.85268 6.609 8.85268C6.609 9.97448 6.38464 11.3206 7.05772 11.3206C7.95515 11.3206 7.7308 9.97448 7.7308 8.85268C9.07695 8.85268 10.1987 9.07704 10.1987 8.17961C10.1987 7.50653 8.62823 7.73089 7.7308 7.73089C7.7308 6.16038 7.95515 5.26294 7.05772 5.26294C6.83336 5.26294 6.609 5.4873 6.609 5.71166Z" fill="white" stroke="white" stroke-width="1.5"/>
<path fill-rule="evenodd" clip-rule="evenodd" d="M13.5642 2.34592V3.24336C12.6668 3.24336 11.545 3.24336 11.545 3.91644C11.545 4.58951 12.6668 4.58951 13.5642 4.58951C13.5642 5.03823 13.3399 6.38438 14.0129 6.38438C14.9104 6.38438 14.686 5.48695 14.686 4.58951C15.3591 4.58951 16.4809 4.81387 16.4809 3.91644C16.4809 3.24336 15.5834 3.24336 14.686 3.24336C14.686 2.57028 14.9104 1.44849 14.0129 1.44849C13.5642 1.44849 13.5642 1.8972 13.5642 2.34592Z" fill="white" stroke="white" stroke-width="1.5"/>
<path fill-rule="evenodd" clip-rule="evenodd" d="M20.9678 26.3524V27.6986C19.846 27.6986 18.9485 27.4742 18.9485 28.1473C18.9485 29.0447 19.846 28.8204 20.9678 28.8204C20.9678 30.1665 20.7434 30.6152 21.6409 30.6152C22.0896 30.6152 22.0896 29.2691 22.0896 28.8204C22.7627 28.8204 23.8844 29.0447 23.8844 28.1473C23.8844 27.4742 22.7627 27.6986 22.0896 27.6986C22.0896 27.0255 22.0896 25.9037 21.6409 25.9037C21.4165 25.6793 20.9678 25.9037 20.9678 26.3524Z" fill="white" stroke="white" stroke-width="1.5"/>
</svg>
