<svg width="38" height="37" viewBox="0 0 38 37" fill="none" xmlns="http://www.w3.org/2000/svg">
<mask id="path-1-outside-1_140_770" maskUnits="userSpaceOnUse" x="0" y="0" width="38" height="37" fill="black">
<rect fill="white" width="38" height="37"/>
<path fill-rule="evenodd" clip-rule="evenodd" d="M7.3075 1.11227C6.39012 1.29259 5.55397 2.14659 5.34608 3.11546C5.26473 3.49486 5.23487 6.0739 5.25672 10.8326C5.2891 17.906 5.29196 17.9844 5.53635 18.4374C5.85157 19.0215 6.31941 19.4645 6.85899 19.6899C7.2186 19.8401 7.96619 19.8676 11.693 19.8676H16.1017V20.893V21.9183L9.49421 21.9513C2.91727 21.9842 2.88455 21.9854 2.41155 22.2384C1.82804 22.5504 1.30333 23.1687 1.12942 23.7488C1.0404 24.0459 0.999211 25.7284 1.00001 29.0341L1.00116 33.8835L1.27758 34.4773C1.61259 35.1968 2.26224 35.7043 3.06979 35.8775C3.83168 36.0409 16.9858 36.0408 17.7035 35.8773C18.4336 35.7111 19.0129 35.2912 19.3848 34.6583C19.689 34.1408 19.7078 34.0272 19.7451 32.4819L19.7845 30.8515H24.3504C28.7637 30.8515 28.9239 30.8438 29.1451 30.6227C29.4415 30.3262 29.4365 29.914 29.1332 29.6393C28.9063 29.4338 28.6309 29.4195 24.335 29.3889L19.7776 29.3567L19.7417 26.5764L19.7058 23.7962L19.3625 23.2445C18.9678 22.61 18.62 22.3224 17.9829 22.1035L17.5319 21.9486L17.5003 20.225C17.4761 18.9002 17.5082 18.4071 17.6392 18.0935C17.9593 17.3272 17.6715 17.3505 26.8567 17.3505C35.6607 17.3505 35.7053 17.3532 36.0008 17.9054C36.0842 18.0613 36.1244 19.8681 36.1244 23.4696V28.8029L35.8378 29.0686C35.6773 29.2173 35.3434 29.362 35.0784 29.3975C34.3066 29.501 34.0038 30.0254 34.4145 30.5475C35.054 31.3605 37.0006 30.4588 37.436 29.1477C37.5971 28.6627 37.6162 27.9098 37.5874 23.1718C37.5515 17.2324 37.5783 17.4667 36.8501 16.731C36.2411 16.1157 35.7633 15.9827 34.1507 15.98L32.6919 15.9775V9.61209C32.6919 5.11224 32.653 3.11683 32.5591 2.80345C32.3781 2.19933 31.7686 1.51788 31.1786 1.25998C30.7181 1.05873 30.2068 1.04454 22.3945 1.01742C15.8502 0.994539 14.039 1.01925 13.8134 1.13447C13.6013 1.24271 13.5183 1.38767 13.4925 1.69591C13.4237 2.51649 12.9751 2.47645 22.2466 2.47645H30.5144L30.8881 2.8102L31.2617 3.14395L31.2951 7.84448C31.3136 10.4298 31.2977 12.545 31.2599 12.545C31.2221 12.545 30.3262 11.9272 29.2687 11.172C27.9937 10.2614 27.246 9.79904 27.0484 9.79904C26.8421 9.79904 26.0962 10.295 24.6243 11.411C23.4549 12.2976 22.4362 12.9992 22.3606 12.9701C22.2848 12.941 20.7322 11.675 18.9102 10.1568C16.3735 8.04299 15.5247 7.39632 15.2867 7.39632C14.9902 7.39632 13.8564 8.27594 7.86379 13.1556L6.77684 14.0408L6.74664 8.74493C6.72501 4.9405 6.75373 3.35882 6.84858 3.12896C6.98931 2.78812 7.47146 2.47645 7.85807 2.47645C8.17706 2.47645 8.55028 2.08 8.55028 1.7411C8.55028 1.49305 8.07122 0.966965 7.87695 1.00163C7.83827 1.0085 7.58198 1.05827 7.3075 1.11227ZM10.5545 1.28939C10.2673 1.57669 10.3731 2.14705 10.7528 2.35849C11.0353 2.51581 11.0996 2.51581 11.3821 2.35849C12.012 2.00769 11.7853 1.10346 11.0674 1.10346C10.8877 1.10346 10.6568 1.1871 10.5545 1.28939ZM21.9015 4.08055C21.2851 4.19131 20.5712 4.73398 20.2493 5.33684C20.0197 5.76647 19.9809 5.97848 20.015 6.61737C20.049 7.25627 20.1148 7.46462 20.4126 7.87572C21.3486 9.16781 23.3668 9.23612 24.3039 8.00752C25.6874 6.19358 24.148 3.67724 21.9015 4.08055ZM23.0898 5.78569C23.5081 6.20399 23.53 6.68854 23.1504 7.12996C22.7913 7.54734 22.0681 7.57835 21.6826 7.19288C21.2972 6.80742 21.3282 6.0842 21.7456 5.72516C22.187 5.34553 22.6715 5.36738 23.0898 5.78569ZM19.528 12.54L23.5835 15.9203L20.7293 15.9775C17.5933 16.0403 17.5374 16.0521 16.8226 16.7973C16.4322 17.2041 16.1017 17.8777 16.1017 18.266C16.1017 18.5015 16.0827 18.5024 11.7444 18.4699L7.38714 18.4374L7.04892 18.0587C6.72673 17.6981 6.7122 17.637 6.74378 16.7802L6.77684 15.8805L11.0091 12.4496C13.3369 10.5625 15.2934 9.05031 15.3569 9.08909C15.4205 9.12788 17.2975 10.6808 19.528 12.54ZM29.3055 12.9455L31.3289 14.3953L31.2954 15.1578L31.2617 15.9203L28.573 15.9477L25.8842 15.9752L24.7973 15.0674C24.1994 14.5682 23.7103 14.104 23.7103 14.0361C23.7103 13.8587 26.9958 11.3858 27.1518 11.4457C27.2233 11.4732 28.1925 12.1481 29.3055 12.9455ZM28.0009 19.2436C25.8046 19.6066 24.6346 19.7459 23.7559 19.749C22.6893 19.7527 22.4958 19.7845 22.154 20.0129C21.5194 20.4369 21.3651 20.8858 21.365 22.3103C21.3647 24.2565 21.6998 24.6999 23.2241 24.7706L24.1108 24.8117V26.2805C24.1108 28.1261 24.0917 28.1055 25.8027 28.1055C26.4537 28.1055 27.0813 28.0546 27.1976 27.9924C27.3319 27.9205 27.5626 27.4183 27.83 26.6162L28.2508 25.3531L28.6121 25.4128C28.8108 25.4456 29.4368 25.5498 30.0032 25.6444C32.1408 26.0015 32.2343 25.9363 32.2343 24.0879C32.2343 22.8768 32.2366 22.8667 32.5242 22.7945C33.153 22.6367 33.1886 21.6653 32.5735 21.4509L32.2343 21.3326V20.2568C32.2343 19.3336 32.2018 19.1486 32.0054 18.9523C31.6996 18.6464 31.5467 18.6575 28.0009 19.2436ZM30.7469 22.3247V24.3241L30.375 24.249C30.1704 24.2077 28.9992 24.0157 27.7721 23.8224L25.541 23.4707L25.5084 22.2985C25.4904 21.6537 25.4904 21.1229 25.5084 21.1189C26.0279 21.0026 30.1123 20.3475 30.375 20.3383L30.7469 20.3253V22.3247ZM24.0865 22.2989L24.0536 23.3573H23.4815H22.9094L22.8765 22.2989L22.8436 21.2406H23.4815H24.1194L24.0865 22.2989ZM17.9412 23.7489L18.2756 24.0834V28.9484V33.8135L17.9995 34.1345L17.7234 34.4556L10.4418 34.4867L3.16017 34.5178L2.82322 34.1809L2.48627 33.8439V28.9254V24.0069L2.83832 23.7107L3.19027 23.4145H10.3985H17.6067L17.9412 23.7489ZM26.5421 25.0912C26.784 25.1576 26.7821 25.2527 26.524 25.9888C26.3373 26.5217 26.2947 26.5633 25.9037 26.5964L25.4838 26.632V25.7617V24.8915L25.9128 24.9639C26.1489 25.0037 26.432 25.061 26.5421 25.0912ZM8.11814 25.8809C7.86688 26.0568 7.86379 26.0941 7.86379 28.8952C7.86379 31.4975 7.88107 31.7469 8.07306 31.9207C8.18816 32.0248 8.39651 32.1101 8.53621 32.1101C8.76676 32.1101 12.9095 29.6865 13.3843 29.2738C13.6634 29.0313 13.6355 28.5346 13.3271 28.2565C13.0022 27.9635 8.76344 25.7028 8.53896 25.7028C8.44731 25.7028 8.25795 25.783 8.11814 25.8809ZM10.9313 28.5352L11.4245 28.8219L10.4189 29.4362C9.86583 29.7742 9.37362 30.0506 9.3251 30.0506C9.27648 30.0506 9.23677 29.5091 9.23677 28.8473V27.644L9.83746 27.9463C10.1679 28.1125 10.6601 28.3775 10.9313 28.5352ZM31.2637 29.6644C30.9765 29.9517 31.0823 30.5221 31.462 30.7335C31.7445 30.8908 31.8088 30.8908 32.0912 30.7335C32.7212 30.3827 32.4944 29.4785 31.7766 29.4785C31.5969 29.4785 31.366 29.5621 31.2637 29.6644Z"/>
</mask>
<path fill-rule="evenodd" clip-rule="evenodd" d="M7.3075 1.11227C6.39012 1.29259 5.55397 2.14659 5.34608 3.11546C5.26473 3.49486 5.23487 6.0739 5.25672 10.8326C5.2891 17.906 5.29196 17.9844 5.53635 18.4374C5.85157 19.0215 6.31941 19.4645 6.85899 19.6899C7.2186 19.8401 7.96619 19.8676 11.693 19.8676H16.1017V20.893V21.9183L9.49421 21.9513C2.91727 21.9842 2.88455 21.9854 2.41155 22.2384C1.82804 22.5504 1.30333 23.1687 1.12942 23.7488C1.0404 24.0459 0.999211 25.7284 1.00001 29.0341L1.00116 33.8835L1.27758 34.4773C1.61259 35.1968 2.26224 35.7043 3.06979 35.8775C3.83168 36.0409 16.9858 36.0408 17.7035 35.8773C18.4336 35.7111 19.0129 35.2912 19.3848 34.6583C19.689 34.1408 19.7078 34.0272 19.7451 32.4819L19.7845 30.8515H24.3504C28.7637 30.8515 28.9239 30.8438 29.1451 30.6227C29.4415 30.3262 29.4365 29.914 29.1332 29.6393C28.9063 29.4338 28.6309 29.4195 24.335 29.3889L19.7776 29.3567L19.7417 26.5764L19.7058 23.7962L19.3625 23.2445C18.9678 22.61 18.62 22.3224 17.9829 22.1035L17.5319 21.9486L17.5003 20.225C17.4761 18.9002 17.5082 18.4071 17.6392 18.0935C17.9593 17.3272 17.6715 17.3505 26.8567 17.3505C35.6607 17.3505 35.7053 17.3532 36.0008 17.9054C36.0842 18.0613 36.1244 19.8681 36.1244 23.4696V28.8029L35.8378 29.0686C35.6773 29.2173 35.3434 29.362 35.0784 29.3975C34.3066 29.501 34.0038 30.0254 34.4145 30.5475C35.054 31.3605 37.0006 30.4588 37.436 29.1477C37.5971 28.6627 37.6162 27.9098 37.5874 23.1718C37.5515 17.2324 37.5783 17.4667 36.8501 16.731C36.2411 16.1157 35.7633 15.9827 34.1507 15.98L32.6919 15.9775V9.61209C32.6919 5.11224 32.653 3.11683 32.5591 2.80345C32.3781 2.19933 31.7686 1.51788 31.1786 1.25998C30.7181 1.05873 30.2068 1.04454 22.3945 1.01742C15.8502 0.994539 14.039 1.01925 13.8134 1.13447C13.6013 1.24271 13.5183 1.38767 13.4925 1.69591C13.4237 2.51649 12.9751 2.47645 22.2466 2.47645H30.5144L30.8881 2.8102L31.2617 3.14395L31.2951 7.84448C31.3136 10.4298 31.2977 12.545 31.2599 12.545C31.2221 12.545 30.3262 11.9272 29.2687 11.172C27.9937 10.2614 27.246 9.79904 27.0484 9.79904C26.8421 9.79904 26.0962 10.295 24.6243 11.411C23.4549 12.2976 22.4362 12.9992 22.3606 12.9701C22.2848 12.941 20.7322 11.675 18.9102 10.1568C16.3735 8.04299 15.5247 7.39632 15.2867 7.39632C14.9902 7.39632 13.8564 8.27594 7.86379 13.1556L6.77684 14.0408L6.74664 8.74493C6.72501 4.9405 6.75373 3.35882 6.84858 3.12896C6.98931 2.78812 7.47146 2.47645 7.85807 2.47645C8.17706 2.47645 8.55028 2.08 8.55028 1.7411C8.55028 1.49305 8.07122 0.966965 7.87695 1.00163C7.83827 1.0085 7.58198 1.05827 7.3075 1.11227ZM10.5545 1.28939C10.2673 1.57669 10.3731 2.14705 10.7528 2.35849C11.0353 2.51581 11.0996 2.51581 11.3821 2.35849C12.012 2.00769 11.7853 1.10346 11.0674 1.10346C10.8877 1.10346 10.6568 1.1871 10.5545 1.28939ZM21.9015 4.08055C21.2851 4.19131 20.5712 4.73398 20.2493 5.33684C20.0197 5.76647 19.9809 5.97848 20.015 6.61737C20.049 7.25627 20.1148 7.46462 20.4126 7.87572C21.3486 9.16781 23.3668 9.23612 24.3039 8.00752C25.6874 6.19358 24.148 3.67724 21.9015 4.08055ZM23.0898 5.78569C23.5081 6.20399 23.53 6.68854 23.1504 7.12996C22.7913 7.54734 22.0681 7.57835 21.6826 7.19288C21.2972 6.80742 21.3282 6.0842 21.7456 5.72516C22.187 5.34553 22.6715 5.36738 23.0898 5.78569ZM19.528 12.54L23.5835 15.9203L20.7293 15.9775C17.5933 16.0403 17.5374 16.0521 16.8226 16.7973C16.4322 17.2041 16.1017 17.8777 16.1017 18.266C16.1017 18.5015 16.0827 18.5024 11.7444 18.4699L7.38714 18.4374L7.04892 18.0587C6.72673 17.6981 6.7122 17.637 6.74378 16.7802L6.77684 15.8805L11.0091 12.4496C13.3369 10.5625 15.2934 9.05031 15.3569 9.08909C15.4205 9.12788 17.2975 10.6808 19.528 12.54ZM29.3055 12.9455L31.3289 14.3953L31.2954 15.1578L31.2617 15.9203L28.573 15.9477L25.8842 15.9752L24.7973 15.0674C24.1994 14.5682 23.7103 14.104 23.7103 14.0361C23.7103 13.8587 26.9958 11.3858 27.1518 11.4457C27.2233 11.4732 28.1925 12.1481 29.3055 12.9455ZM28.0009 19.2436C25.8046 19.6066 24.6346 19.7459 23.7559 19.749C22.6893 19.7527 22.4958 19.7845 22.154 20.0129C21.5194 20.4369 21.3651 20.8858 21.365 22.3103C21.3647 24.2565 21.6998 24.6999 23.2241 24.7706L24.1108 24.8117V26.2805C24.1108 28.1261 24.0917 28.1055 25.8027 28.1055C26.4537 28.1055 27.0813 28.0546 27.1976 27.9924C27.3319 27.9205 27.5626 27.4183 27.83 26.6162L28.2508 25.3531L28.6121 25.4128C28.8108 25.4456 29.4368 25.5498 30.0032 25.6444C32.1408 26.0015 32.2343 25.9363 32.2343 24.0879C32.2343 22.8768 32.2366 22.8667 32.5242 22.7945C33.153 22.6367 33.1886 21.6653 32.5735 21.4509L32.2343 21.3326V20.2568C32.2343 19.3336 32.2018 19.1486 32.0054 18.9523C31.6996 18.6464 31.5467 18.6575 28.0009 19.2436ZM30.7469 22.3247V24.3241L30.375 24.249C30.1704 24.2077 28.9992 24.0157 27.7721 23.8224L25.541 23.4707L25.5084 22.2985C25.4904 21.6537 25.4904 21.1229 25.5084 21.1189C26.0279 21.0026 30.1123 20.3475 30.375 20.3383L30.7469 20.3253V22.3247ZM24.0865 22.2989L24.0536 23.3573H23.4815H22.9094L22.8765 22.2989L22.8436 21.2406H23.4815H24.1194L24.0865 22.2989ZM17.9412 23.7489L18.2756 24.0834V28.9484V33.8135L17.9995 34.1345L17.7234 34.4556L10.4418 34.4867L3.16017 34.5178L2.82322 34.1809L2.48627 33.8439V28.9254V24.0069L2.83832 23.7107L3.19027 23.4145H10.3985H17.6067L17.9412 23.7489ZM26.5421 25.0912C26.784 25.1576 26.7821 25.2527 26.524 25.9888C26.3373 26.5217 26.2947 26.5633 25.9037 26.5964L25.4838 26.632V25.7617V24.8915L25.9128 24.9639C26.1489 25.0037 26.432 25.061 26.5421 25.0912ZM8.11814 25.8809C7.86688 26.0568 7.86379 26.0941 7.86379 28.8952C7.86379 31.4975 7.88107 31.7469 8.07306 31.9207C8.18816 32.0248 8.39651 32.1101 8.53621 32.1101C8.76676 32.1101 12.9095 29.6865 13.3843 29.2738C13.6634 29.0313 13.6355 28.5346 13.3271 28.2565C13.0022 27.9635 8.76344 25.7028 8.53896 25.7028C8.44731 25.7028 8.25795 25.783 8.11814 25.8809ZM10.9313 28.5352L11.4245 28.8219L10.4189 29.4362C9.86583 29.7742 9.37362 30.0506 9.3251 30.0506C9.27648 30.0506 9.23677 29.5091 9.23677 28.8473V27.644L9.83746 27.9463C10.1679 28.1125 10.6601 28.3775 10.9313 28.5352ZM31.2637 29.6644C30.9765 29.9517 31.0823 30.5221 31.462 30.7335C31.7445 30.8908 31.8088 30.8908 32.0912 30.7335C32.7212 30.3827 32.4944 29.4785 31.7766 29.4785C31.5969 29.4785 31.366 29.5621 31.2637 29.6644Z" fill="white"/>
<path fill-rule="evenodd" clip-rule="evenodd" d="M7.3075 1.11227C6.39012 1.29259 5.55397 2.14659 5.34608 3.11546C5.26473 3.49486 5.23487 6.0739 5.25672 10.8326C5.2891 17.906 5.29196 17.9844 5.53635 18.4374C5.85157 19.0215 6.31941 19.4645 6.85899 19.6899C7.2186 19.8401 7.96619 19.8676 11.693 19.8676H16.1017V20.893V21.9183L9.49421 21.9513C2.91727 21.9842 2.88455 21.9854 2.41155 22.2384C1.82804 22.5504 1.30333 23.1687 1.12942 23.7488C1.0404 24.0459 0.999211 25.7284 1.00001 29.0341L1.00116 33.8835L1.27758 34.4773C1.61259 35.1968 2.26224 35.7043 3.06979 35.8775C3.83168 36.0409 16.9858 36.0408 17.7035 35.8773C18.4336 35.7111 19.0129 35.2912 19.3848 34.6583C19.689 34.1408 19.7078 34.0272 19.7451 32.4819L19.7845 30.8515H24.3504C28.7637 30.8515 28.9239 30.8438 29.1451 30.6227C29.4415 30.3262 29.4365 29.914 29.1332 29.6393C28.9063 29.4338 28.6309 29.4195 24.335 29.3889L19.7776 29.3567L19.7417 26.5764L19.7058 23.7962L19.3625 23.2445C18.9678 22.61 18.62 22.3224 17.9829 22.1035L17.5319 21.9486L17.5003 20.225C17.4761 18.9002 17.5082 18.4071 17.6392 18.0935C17.9593 17.3272 17.6715 17.3505 26.8567 17.3505C35.6607 17.3505 35.7053 17.3532 36.0008 17.9054C36.0842 18.0613 36.1244 19.8681 36.1244 23.4696V28.8029L35.8378 29.0686C35.6773 29.2173 35.3434 29.362 35.0784 29.3975C34.3066 29.501 34.0038 30.0254 34.4145 30.5475C35.054 31.3605 37.0006 30.4588 37.436 29.1477C37.5971 28.6627 37.6162 27.9098 37.5874 23.1718C37.5515 17.2324 37.5783 17.4667 36.8501 16.731C36.2411 16.1157 35.7633 15.9827 34.1507 15.98L32.6919 15.9775V9.61209C32.6919 5.11224 32.653 3.11683 32.5591 2.80345C32.3781 2.19933 31.7686 1.51788 31.1786 1.25998C30.7181 1.05873 30.2068 1.04454 22.3945 1.01742C15.8502 0.994539 14.039 1.01925 13.8134 1.13447C13.6013 1.24271 13.5183 1.38767 13.4925 1.69591C13.4237 2.51649 12.9751 2.47645 22.2466 2.47645H30.5144L30.8881 2.8102L31.2617 3.14395L31.2951 7.84448C31.3136 10.4298 31.2977 12.545 31.2599 12.545C31.2221 12.545 30.3262 11.9272 29.2687 11.172C27.9937 10.2614 27.246 9.79904 27.0484 9.79904C26.8421 9.79904 26.0962 10.295 24.6243 11.411C23.4549 12.2976 22.4362 12.9992 22.3606 12.9701C22.2848 12.941 20.7322 11.675 18.9102 10.1568C16.3735 8.04299 15.5247 7.39632 15.2867 7.39632C14.9902 7.39632 13.8564 8.27594 7.86379 13.1556L6.77684 14.0408L6.74664 8.74493C6.72501 4.9405 6.75373 3.35882 6.84858 3.12896C6.98931 2.78812 7.47146 2.47645 7.85807 2.47645C8.17706 2.47645 8.55028 2.08 8.55028 1.7411C8.55028 1.49305 8.07122 0.966965 7.87695 1.00163C7.83827 1.0085 7.58198 1.05827 7.3075 1.11227ZM10.5545 1.28939C10.2673 1.57669 10.3731 2.14705 10.7528 2.35849C11.0353 2.51581 11.0996 2.51581 11.3821 2.35849C12.012 2.00769 11.7853 1.10346 11.0674 1.10346C10.8877 1.10346 10.6568 1.1871 10.5545 1.28939ZM21.9015 4.08055C21.2851 4.19131 20.5712 4.73398 20.2493 5.33684C20.0197 5.76647 19.9809 5.97848 20.015 6.61737C20.049 7.25627 20.1148 7.46462 20.4126 7.87572C21.3486 9.16781 23.3668 9.23612 24.3039 8.00752C25.6874 6.19358 24.148 3.67724 21.9015 4.08055ZM23.0898 5.78569C23.5081 6.20399 23.53 6.68854 23.1504 7.12996C22.7913 7.54734 22.0681 7.57835 21.6826 7.19288C21.2972 6.80742 21.3282 6.0842 21.7456 5.72516C22.187 5.34553 22.6715 5.36738 23.0898 5.78569ZM19.528 12.54L23.5835 15.9203L20.7293 15.9775C17.5933 16.0403 17.5374 16.0521 16.8226 16.7973C16.4322 17.2041 16.1017 17.8777 16.1017 18.266C16.1017 18.5015 16.0827 18.5024 11.7444 18.4699L7.38714 18.4374L7.04892 18.0587C6.72673 17.6981 6.7122 17.637 6.74378 16.7802L6.77684 15.8805L11.0091 12.4496C13.3369 10.5625 15.2934 9.05031 15.3569 9.08909C15.4205 9.12788 17.2975 10.6808 19.528 12.54ZM29.3055 12.9455L31.3289 14.3953L31.2954 15.1578L31.2617 15.9203L28.573 15.9477L25.8842 15.9752L24.7973 15.0674C24.1994 14.5682 23.7103 14.104 23.7103 14.0361C23.7103 13.8587 26.9958 11.3858 27.1518 11.4457C27.2233 11.4732 28.1925 12.1481 29.3055 12.9455ZM28.0009 19.2436C25.8046 19.6066 24.6346 19.7459 23.7559 19.749C22.6893 19.7527 22.4958 19.7845 22.154 20.0129C21.5194 20.4369 21.3651 20.8858 21.365 22.3103C21.3647 24.2565 21.6998 24.6999 23.2241 24.7706L24.1108 24.8117V26.2805C24.1108 28.1261 24.0917 28.1055 25.8027 28.1055C26.4537 28.1055 27.0813 28.0546 27.1976 27.9924C27.3319 27.9205 27.5626 27.4183 27.83 26.6162L28.2508 25.3531L28.6121 25.4128C28.8108 25.4456 29.4368 25.5498 30.0032 25.6444C32.1408 26.0015 32.2343 25.9363 32.2343 24.0879C32.2343 22.8768 32.2366 22.8667 32.5242 22.7945C33.153 22.6367 33.1886 21.6653 32.5735 21.4509L32.2343 21.3326V20.2568C32.2343 19.3336 32.2018 19.1486 32.0054 18.9523C31.6996 18.6464 31.5467 18.6575 28.0009 19.2436ZM30.7469 22.3247V24.3241L30.375 24.249C30.1704 24.2077 28.9992 24.0157 27.7721 23.8224L25.541 23.4707L25.5084 22.2985C25.4904 21.6537 25.4904 21.1229 25.5084 21.1189C26.0279 21.0026 30.1123 20.3475 30.375 20.3383L30.7469 20.3253V22.3247ZM24.0865 22.2989L24.0536 23.3573H23.4815H22.9094L22.8765 22.2989L22.8436 21.2406H23.4815H24.1194L24.0865 22.2989ZM17.9412 23.7489L18.2756 24.0834V28.9484V33.8135L17.9995 34.1345L17.7234 34.4556L10.4418 34.4867L3.16017 34.5178L2.82322 34.1809L2.48627 33.8439V28.9254V24.0069L2.83832 23.7107L3.19027 23.4145H10.3985H17.6067L17.9412 23.7489ZM26.5421 25.0912C26.784 25.1576 26.7821 25.2527 26.524 25.9888C26.3373 26.5217 26.2947 26.5633 25.9037 26.5964L25.4838 26.632V25.7617V24.8915L25.9128 24.9639C26.1489 25.0037 26.432 25.061 26.5421 25.0912ZM8.11814 25.8809C7.86688 26.0568 7.86379 26.0941 7.86379 28.8952C7.86379 31.4975 7.88107 31.7469 8.07306 31.9207C8.18816 32.0248 8.39651 32.1101 8.53621 32.1101C8.76676 32.1101 12.9095 29.6865 13.3843 29.2738C13.6634 29.0313 13.6355 28.5346 13.3271 28.2565C13.0022 27.9635 8.76344 25.7028 8.53896 25.7028C8.44731 25.7028 8.25795 25.783 8.11814 25.8809ZM10.9313 28.5352L11.4245 28.8219L10.4189 29.4362C9.86583 29.7742 9.37362 30.0506 9.3251 30.0506C9.27648 30.0506 9.23677 29.5091 9.23677 28.8473V27.644L9.83746 27.9463C10.1679 28.1125 10.6601 28.3775 10.9313 28.5352ZM31.2637 29.6644C30.9765 29.9517 31.0823 30.5221 31.462 30.7335C31.7445 30.8908 31.8088 30.8908 32.0912 30.7335C32.7212 30.3827 32.4944 29.4785 31.7766 29.4785C31.5969 29.4785 31.366 29.5621 31.2637 29.6644Z" stroke="white" stroke-width="0.4" mask="url(#path-1-outside-1_140_770)"/>
</svg>
