<svg width="35" height="35" viewBox="0 0 35 35" fill="none" xmlns="http://www.w3.org/2000/svg">
<g clip-path="url(#clip0_140_751)">
<path fill-rule="evenodd" clip-rule="evenodd" d="M8.60335 24.8057L11.3408 22.0783C11.7318 21.8835 12.3184 21.299 12.1229 20.5198C11.7318 19.7405 10.9497 19.7405 10.3631 20.1301C9.77654 20.5198 9.38548 21.1042 8.99442 21.4939C8.40782 22.2731 6.84358 24.0265 6.06145 24.0265H2.15084V25.9746H7.03911C7.6257 25.9746 7.82123 25.585 8.60335 24.8057ZM31.2849 18.5716L29.1341 17.7923L17.9888 28.8969C17.7933 29.2865 18.3799 30.8451 18.5754 31.2347L31.2849 18.5716ZM27.3743 16.8182C27.1788 16.2338 24.4413 13.896 23.8548 13.3115L17.0112 6.29811C15.6425 4.93439 14.4693 3.18104 12.7095 4.34994L5.67039 11.3634C4.30168 12.7271 3.12849 13.7012 5.0838 15.6493C5.47486 16.2338 6.25698 16.8182 6.84358 17.4027C7.23464 17.7923 8.01676 18.7664 8.60335 19.156C10.9497 16.2338 14.4693 18.3768 14.2737 21.299C14.0782 22.4679 13.2961 22.8576 12.905 23.442L16.8156 27.3384L27.3743 16.8182ZM9.58101 4.34994C9.38548 3.76549 8.79889 3.57067 8.40782 2.98622C7.82123 3.18104 3.51955 7.66183 2.93296 8.24629L4.30168 9.61001C4.69274 9.41519 9.38548 4.73958 9.58101 4.34994ZM0 8.24629C0.391062 7.66183 3.51955 4.73958 4.10615 4.15513L8.21229 0.0639648L11.1453 2.98622C14.4693 1.03805 15.6425 2.01214 17.9888 4.54476L28.1564 14.4804C29.5251 15.8442 29.1341 15.6493 31.2849 16.4286L34.6089 17.5975C34.8045 17.5975 34.8045 17.5975 34.8045 17.5975L35 17.7923C34.6089 18.3768 27.1788 25.7798 26.3967 26.3643C25.0279 27.9228 23.6592 29.2865 22.095 30.6503C21.5084 31.4295 18.1844 34.7414 17.7933 34.9362C17.4022 34.3518 17.0112 32.7932 16.6201 31.8192C16.4246 30.8451 16.0335 29.6762 15.4469 29.0917L11.3408 25.0006C10.7542 25.3902 8.60335 27.9228 8.21229 27.9228C7.82123 28.1176 2.93296 28.1176 2.15084 28.1176V30.8451H0V19.156H2.15084V21.8835C3.12849 21.8835 4.30168 21.8835 5.27933 21.8835C5.86592 21.8835 5.86592 21.6887 6.25698 21.299C6.45252 21.1042 6.84358 20.9094 7.03911 20.7146C6.64805 20.1301 3.91062 17.4027 3.12849 16.6234C0.586592 14.0908 2.73743 11.5582 2.93296 10.9737L0 8.24629H0Z" fill="white"/>
<path fill-rule="evenodd" clip-rule="evenodd" d="M28.3519 29.6762C28.743 29.2866 29.3296 28.7021 29.7206 28.3125C30.3072 28.897 32.067 30.4555 32.2625 31.0399L30.8938 32.2089L28.3519 29.6762Z" fill="white"/>
<path fill-rule="evenodd" clip-rule="evenodd" d="M24.8324 31.8191L26.5922 31.2346C26.7877 31.4294 27.7653 33.7672 27.9609 34.3517C27.3743 34.5465 26.5922 34.9361 26.0056 34.9361L24.8324 31.8191Z" fill="white"/>
<path fill-rule="evenodd" clip-rule="evenodd" d="M35 25.9746L34.4134 27.7279L31.2849 26.7538L31.8715 24.8057C32.4581 25.0005 34.609 25.5849 35 25.9746Z" fill="white"/>
</g>
<defs>
<clipPath id="clip0_140_751">
<rect width="35" height="35" fill="white"/>
</clipPath>
</defs>
</svg>
