<svg width="36" height="35" viewBox="0 0 36 35" fill="none" xmlns="http://www.w3.org/2000/svg">
<path fill-rule="evenodd" clip-rule="evenodd" d="M3.41793 2.17241C3.90069 1.93103 16.4524 2.17241 18.8662 2.17241C20.0731 2.17241 20.7972 1.93103 21.5214 2.65517C22.2455 3.62069 22.0041 7.24138 22.0041 8.68966V27.5172C22.0041 29.6897 22.2455 32.3448 20.7972 32.8276C20.0731 33.069 9.93517 32.8276 8.24552 32.8276C1.00414 32.8276 2.21104 33.5517 2.21104 26.3103V4.10345C2.21104 3.13793 2.45241 2.65517 3.41793 2.17241ZM3.41793 0C1.24552 0.482759 0.0386207 1.93103 0.0386207 4.10345V26.3103C0.0386207 28 -0.202759 31.6207 0.521379 33.069C1.72828 35 3.17655 35 6.0731 35C8.4869 35 19.349 35 20.7972 35C22.7283 34.5172 23.9352 33.069 23.9352 30.8965V8.68966C23.9352 7 24.1766 3.37931 23.4524 1.93103C22.2455 0 20.7972 0 17.9007 0C15.7283 0 4.62483 0 3.41793 0V0Z" fill="white"/>
<path fill-rule="evenodd" clip-rule="evenodd" d="M11.1422 17.8622C14.5216 17.3794 17.1767 20.0346 17.6595 22.6897C18.3836 26.3104 15.7284 28.9656 12.8319 29.4484C9.45259 29.9311 6.79742 27.5173 6.31466 24.6208C5.8319 21.2415 8.24569 18.5863 11.1422 17.8622ZM11.1422 15.9311C7.0388 16.4139 3.65949 20.0346 4.14225 24.6208C4.86638 28.4828 8.48707 32.1035 13.0733 31.3794C16.9353 30.8966 20.3147 27.5173 19.8319 22.6897C19.3491 18.8277 15.7285 15.4484 11.1422 15.9311Z" fill="white"/>
<path fill-rule="evenodd" clip-rule="evenodd" d="M11.6248 5.55178C15.7282 4.82764 16.4523 11.1035 12.5903 11.5863C10.6592 11.8276 9.21096 10.6207 8.96958 8.93109C8.7282 7.24143 9.9351 5.79316 11.6248 5.55178ZM11.3834 3.62075C9.69372 3.86212 8.7282 4.34488 8.00406 5.3104C5.10751 9.17246 8.24544 14.2414 12.8317 13.5173C15.2454 13.2759 17.4179 10.8621 17.1765 7.72419C16.6937 5.3104 14.2799 3.13799 11.3834 3.62075Z" fill="white"/>
<path fill-rule="evenodd" clip-rule="evenodd" d="M28.2798 13.0346C27.797 11.8277 29.9694 11.3449 30.2108 12.5518C30.4522 14.0001 28.5211 14.2415 28.2798 13.0346ZM30.2108 9.89666C25.3832 8.68976 24.9005 15.4484 29.0039 15.9311C30.9349 15.9311 32.1418 14.4829 32.1418 12.7932C32.3832 10.8622 32.1418 7.96562 32.3832 6.27597C32.6246 6.51735 33.3487 6.75873 33.8315 7.00011C34.3142 7.00011 35.0384 6.51735 35.0384 6.03459C35.0384 5.06907 33.3487 4.58631 32.3832 4.10355C30.9349 3.37942 30.2108 3.37942 30.2108 5.31045C30.2108 7.00011 30.2108 8.44838 30.2108 9.89666Z" fill="white"/>
<path fill-rule="evenodd" clip-rule="evenodd" d="M28.2798 32.1032C27.797 30.8963 29.9694 30.4135 30.2108 31.6204C30.4522 33.0687 28.5211 33.3101 28.2798 32.1032ZM30.2108 28.9653C25.3832 27.7584 24.9005 34.517 29.0039 34.9997C30.9349 34.9997 32.1418 33.5515 32.1418 31.8618C32.3832 29.9308 32.1418 27.0342 32.3832 25.3446C32.6246 25.5859 33.3487 26.0687 33.8315 26.0687C34.3142 26.0687 35.0384 25.8273 35.0384 25.1032C35.0384 24.1377 33.3487 23.6549 32.3832 23.1722C30.9349 22.448 30.2108 22.448 30.2108 24.3791C30.2108 26.0687 30.2108 27.517 30.2108 28.9653Z" fill="white"/>
<path fill-rule="evenodd" clip-rule="evenodd" d="M11.6248 21.9655C13.7972 21.4828 14.5213 24.8621 12.5903 25.3448C10.4179 25.8276 9.211 22.6897 11.6248 21.9655ZM11.142 20.0345C9.45238 20.5172 7.76272 22.2069 8.48686 24.6207C9.45238 29.2069 16.6938 27.7586 15.7282 22.931C15.2455 21 13.3144 19.5517 11.142 20.0345Z" fill="white"/>
<path fill-rule="evenodd" clip-rule="evenodd" d="M11.6248 7.72387C10.4179 8.20663 11.1421 10.1377 12.5904 9.41353C13.5559 8.93077 13.0731 6.99973 11.6248 7.72387Z" fill="white"/>
<path fill-rule="evenodd" clip-rule="evenodd" d="M4.86616 13.5173C4.62478 13.7586 4.3834 13.5173 4.3834 14C3.90064 14.9655 4.62478 15.6897 5.59029 15.4483C6.79719 14.9655 6.07305 13.0345 4.86616 13.5173Z" fill="white"/>
<path fill-rule="evenodd" clip-rule="evenodd" d="M18.6248 13.5173C17.9007 13.7586 17.6593 14 17.9007 14.7241C17.9007 15.2069 18.6248 15.6897 19.1076 15.4483C20.3145 14.9655 19.8317 13.0345 18.6248 13.5173Z" fill="white"/>
</svg>
