<svg width="27" height="35" viewBox="0 0 27 35" fill="none" xmlns="http://www.w3.org/2000/svg">
<g clip-path="url(#clip0_140_779)">
<path fill-rule="evenodd" clip-rule="evenodd" d="M14.4873 6.17651H19.7814L15.6638 13.2353C15.3696 14.1177 14.7814 15 14.4873 15.5883V6.17651ZM12.4285 15.5883C12.1344 15.2942 11.8402 14.7059 11.5461 14.4118C11.252 14.1177 11.252 13.5294 10.9579 13.2353L6.84024 6.17651H12.4285V15.5883ZM2.72259 2.05887C3.01671 2.05887 23.6049 2.05887 23.8991 2.05887C24.7814 2.35298 24.7814 3.82357 23.8991 4.11769C23.6049 4.11769 3.31082 4.11769 2.72259 4.11769C1.84024 3.82357 1.84024 2.35298 2.72259 2.05887ZM4.4873 6.17651C5.36965 7.6471 12.1344 19.4118 12.1344 19.7059L5.07553 32.0589C4.78141 32.6471 4.78141 32.9412 4.4873 32.9412C3.31082 32.9412 2.42847 32.6471 2.13435 33.8236C1.84024 35 3.31082 35 4.19318 35C6.252 35 5.66377 35 7.42847 31.7647C8.31082 30.2942 9.19318 29.1177 10.0755 27.6471C10.3696 26.7647 11.8402 24.1177 12.4285 23.5294V32.6471C12.4285 33.8236 12.1344 35 13.3108 35C14.4873 35 14.4873 33.8236 14.4873 32.9412V23.5294C14.7814 23.8236 19.4873 32.353 20.3696 33.8236C20.9579 35 20.9579 35 22.4285 35C23.3108 35 24.7814 35 24.4873 33.8236C24.4873 32.6471 23.3108 32.9412 22.4285 32.9412C22.1344 32.9412 22.1344 32.6471 21.8402 32.0589L14.4873 19.7059C14.4873 19.4118 17.7226 13.8236 18.3108 12.9412C19.4873 10.5883 20.9579 8.52945 22.1344 6.17651C23.3108 6.17651 25.3696 6.47063 26.252 4.41181C27.1343 2.6471 26.252 0.882396 25.0755 0.294161C23.8991 -0.294074 10.3696 4.30569e-05 7.42847 4.30569e-05C5.95788 4.30569e-05 2.72259 -0.294074 1.84024 0.294161C-0.512704 1.47063 -0.512704 4.70592 1.84024 5.88239C2.72259 6.47063 3.60494 6.17651 4.4873 6.17651Z" fill="white"/>
</g>
<defs>
<clipPath id="clip0_140_779">
<rect width="26.6216" height="35" fill="white"/>
</clipPath>
</defs>
</svg>
