<svg width="36" height="35" viewBox="0 0 36 35" fill="none" xmlns="http://www.w3.org/2000/svg">
<path fill-rule="evenodd" clip-rule="evenodd" d="M11.291 0.709767C7.97296 1.12772 4.24483 1.59509 3.00618 1.74836C1.76764 1.90162 0.661818 2.07593 0.549022 2.13575C-0.0317828 2.44338 0.000318039 1.54403 0.000318039 17.5038V32.278L0.323872 32.5982L0.647428 32.9184H5.52643H10.4054V33.4499C10.4054 33.7422 10.4607 34.138 10.5281 34.3296C10.7689 35.0134 10.6259 35 17.7111 35C24.7964 35 24.6534 35.0134 24.8942 34.3296C24.9616 34.138 25.0169 33.7422 25.0169 33.4499V32.9184H29.8959H34.7749L35.0984 32.5982L35.422 32.278V17.5038C35.422 1.5241 35.4552 2.44404 34.8665 2.13224C34.6689 2.0275 19.6291 0.125505 18.0432 0.00466502C17.5308 -0.0343369 15.5868 0.16867 11.291 0.709767ZM25.5427 2.97177L33.3188 3.92567V5.05629V6.18679H17.7111H2.10348V5.05793V3.92906L9.60291 2.99105C13.7275 2.47504 17.2518 2.04503 17.4344 2.03528C17.6171 2.02564 21.2658 2.4471 25.5427 2.97177ZM4.09595 9.30913V10.3499H3.09971H2.10348V9.30913V8.26835H3.09971H4.09595V9.30913ZM10.4054 9.30913V10.3499H9.7498C9.20585 10.3499 9.03605 10.3982 8.75356 10.6336C8.31157 11.0017 8.28035 11.6093 8.67995 12.0693L8.94683 12.3767L11.2983 12.4103C12.9443 12.434 13.7457 12.4046 13.9698 12.3128C14.3878 12.1415 14.6516 11.6354 14.564 11.1733C14.4569 10.6078 14.1516 10.4171 13.2754 10.3681L12.5086 10.3252V9.29675V8.26835H17.7111H22.9137V9.29675V10.3252L22.1469 10.3681C21.2707 10.4171 20.9654 10.6078 20.8583 11.1733C20.7707 11.6354 21.0345 12.1415 21.4524 12.3128C21.6766 12.4046 22.478 12.434 24.124 12.4103L26.4755 12.3767L26.7423 12.0693C27.1419 11.6093 27.1107 11.0017 26.6687 10.6336C26.3862 10.3982 26.2164 10.3499 25.6725 10.3499H25.0169V9.30913V8.26835H27.12H29.2232V16.485V24.7017H17.7111H6.19911V16.485V8.26835H8.30227H10.4054V9.30913ZM33.3188 9.30913V10.3499H32.3226H31.3263V9.30913V8.26835H32.3226H33.3188V9.30913ZM4.09595 13.4175V14.4035H3.09971H2.10348V13.4175V12.4315H3.09971H4.09595V13.4175ZM33.3188 13.4175V14.4035H32.3226H31.3263V13.4175V12.4315H32.3226H33.3188V13.4175ZM4.09595 17.5258V18.5666H3.09971H2.10348V17.5258V16.485H3.09971H4.09595V17.5258ZM33.3188 17.5258V18.5666H32.3226H31.3263V17.5258V16.485H32.3226H33.3188V17.5258ZM4.09595 21.6342V22.6202H3.09971H2.10348V21.6342V20.6482H3.09971H4.09595V21.6342ZM33.3188 21.6342V22.6202H32.3226H31.3263V21.6342V20.6482H32.3226H33.3188V21.6342ZM4.09595 25.7425V26.7833H3.09971H2.10348V25.7425V24.7017H3.09971H4.09595V25.7425ZM33.3188 25.7425V26.7833H32.3226H31.3263V25.7425V24.7017H32.3226H33.3188V25.7425ZM29.2232 28.8101V30.8369H27.12H25.0169V30.2836C25.0169 29.6741 24.7979 29.1516 24.4695 28.9777C24.3303 28.904 21.9888 28.8649 17.7111 28.8649C13.4335 28.8649 11.0919 28.904 10.9528 28.9777C10.6244 29.1516 10.4054 29.6741 10.4054 30.2836V30.8369H8.30227H6.19911V28.8101V26.7833H17.7111H29.2232V28.8101ZM4.09595 29.8509V30.8369H3.09971H2.10348V29.8509V28.8649H3.09971H4.09595V29.8509ZM33.3188 29.8509V30.8369H32.3226H31.3263V29.8509V28.8649H32.3226H33.3188V29.8509ZM22.9137 31.9324V32.9184H17.7111H12.5086V31.9324V30.9464H17.7111H22.9137V31.9324Z" fill="white"/>
</svg>
