<svg width="37" height="37" viewBox="0 0 37 37" fill="none" xmlns="http://www.w3.org/2000/svg">
<path fill-rule="evenodd" clip-rule="evenodd" d="M31.9538 14.5549C33.5723 14.3526 33.9769 13.948 34.7861 13.5434V34.7861H33.7746C33.7746 28.5145 32.9653 25.6821 32.5607 19.6127C32.3584 18.1965 31.9538 15.7688 31.9538 14.5549ZM3.22543 34.7861H2.21387V13.5434C3.22543 14.1503 3.42775 14.3526 5.04624 14.7572C5.04624 15.5665 3.63006 27.5029 3.42775 29.526C3.22543 31.3468 3.22543 32.9653 3.22543 34.7861ZM2.21387 10.9133H34.7861V11.5202C34.7861 12.7341 32.3584 13.5434 31.3468 13.5434C27.7052 13.5434 27.7052 11.5202 26.4913 11.5202C25.6821 12.3295 25.2775 12.9364 23.8613 13.341C21.8382 13.948 20.2197 13.341 18.8035 12.1272C17.5896 10.9133 17.7919 13.341 14.3526 13.5434C10.9133 13.7457 10.711 11.1156 9.69942 11.9249C9.09249 12.3295 9.09249 12.5318 8.28324 12.9364C5.45087 14.5549 2.21387 12.7341 2.21387 11.5202V10.9133ZM11.3179 6.0578C12.1272 5.45087 18.1965 2.21387 18.6012 2.21387C18.8035 2.21387 25.0751 5.45087 25.6821 6.0578C27.0983 6.66474 28.1098 7.06936 29.3237 7.87861C30.5376 8.48555 31.9538 9.09249 32.9653 9.69942H4.03468L11.3179 6.0578ZM18.3988 13.1387C19.2081 14.1503 20.8266 14.7572 22.6474 14.7572C25.0751 14.5549 25.6821 13.7457 26.6936 12.9364C27.3006 13.341 27.9075 13.7457 28.5145 14.1503C29.1214 14.3526 30.5376 14.5549 30.7399 14.7572L32.5607 31.1445C32.5607 32.5607 32.3584 34.7861 32.763 36C33.7746 36 34.7861 36 35.7977 36C36 35.5954 36 35.5954 36 35.1908V10.5087C36 9.90173 35.7977 9.90173 35.3931 9.49711C32.3584 8.08092 19.0058 1 18.6012 1C18.1965 1 5.24856 7.6763 2.82081 9.09249C1.20231 9.69942 1 9.69942 1 10.5087V35.1908C1 35.5954 1 35.5954 1.20231 36C2.21387 36 3.22543 36 4.23699 36C4.84393 34.5838 4.43931 31.9538 4.43931 30.3353C4.64162 28.5145 4.84393 26.896 5.04624 25.0751C5.45087 21.6358 5.85549 18.1965 6.26012 14.7572C7.6763 14.7572 9.09249 13.948 9.90173 13.1387C10.5087 13.5434 10.9133 13.948 11.7225 14.3526C13.5434 14.9595 15.7688 14.9595 17.3873 13.7457C17.7919 13.5434 17.9942 13.341 18.3988 13.1387Z" fill="white" stroke="white" stroke-width="0.5" stroke-miterlimit="22.9256"/>
</svg>
