<svg width="32" height="19" viewBox="0 0 32 19" fill="none" xmlns="http://www.w3.org/2000/svg">
<mask id="path-1-inside-1_140_902" fill="white">
<path fill-rule="evenodd" clip-rule="evenodd" d="M21.9237 0.596707C22.9861 -0.285165 24.5622 -0.13883 25.4441 0.923557L31.0881 7.72295C31.499 8.21796 31.6867 8.8245 31.6625 9.42038C31.6865 10.016 31.4989 10.6223 31.0881 11.1171L25.444 17.9165C24.5622 18.9789 22.986 19.1252 21.9236 18.2433C20.8613 17.3615 20.7149 15.7853 21.5968 14.723L23.8571 11.9999H2.5C1.11929 11.9999 0 10.8806 0 9.49994C0 8.11922 1.11929 6.99994 2.5 6.99994H23.9898L21.5968 4.1171C20.7149 3.05472 20.8613 1.47858 21.9237 0.596707Z"/>
</mask>
<path fill-rule="evenodd" clip-rule="evenodd" d="M21.9237 0.596707C22.9861 -0.285165 24.5622 -0.13883 25.4441 0.923557L31.0881 7.72295C31.499 8.21796 31.6867 8.8245 31.6625 9.42038C31.6865 10.016 31.4989 10.6223 31.0881 11.1171L25.444 17.9165C24.5622 18.9789 22.986 19.1252 21.9236 18.2433C20.8613 17.3615 20.7149 15.7853 21.5968 14.723L23.8571 11.9999H2.5C1.11929 11.9999 0 10.8806 0 9.49994C0 8.11922 1.11929 6.99994 2.5 6.99994H23.9898L21.5968 4.1171C20.7149 3.05472 20.8613 1.47858 21.9237 0.596707Z" fill="#464646"/>
<path d="M25.4441 0.923557L24.2899 1.88162V1.88162L25.4441 0.923557ZM21.9237 0.596707L20.9656 -0.557466L21.9237 0.596707ZM31.0881 7.72295L32.2423 6.76489V6.76489L31.0881 7.72295ZM31.6625 9.42038L30.1638 9.35951L30.1613 9.42017L30.1637 9.48083L31.6625 9.42038ZM31.0881 11.1171L29.9339 10.159L31.0881 11.1171ZM25.444 17.9165L26.5982 18.8746L25.444 17.9165ZM21.5968 14.723L20.4426 13.7649V13.7649L21.5968 14.723ZM23.8571 11.9999L25.0113 12.958L27.0517 10.4999H23.8571V11.9999ZM23.9898 6.99994V8.49994H27.1844L25.144 6.04187L23.9898 6.99994ZM21.5968 4.1171L20.4426 5.07517V5.07517L21.5968 4.1171ZM26.5982 -0.0345054C25.1872 -1.73433 22.6654 -1.96846 20.9656 -0.557466L22.8817 1.75088C23.3067 1.39813 23.9371 1.45667 24.2899 1.88162L26.5982 -0.0345054ZM32.2423 6.76489L26.5982 -0.0345057L24.2899 1.88162L29.934 8.68102L32.2423 6.76489ZM33.1613 9.48126C33.2 8.52924 32.8992 7.55619 32.2423 6.76489L29.934 8.68102C30.0989 8.87973 30.1735 9.11976 30.1638 9.35951L33.1613 9.48126ZM32.2423 12.0752C32.8989 11.2842 33.1997 10.3116 33.1613 9.35993L30.1637 9.48083C30.1734 9.72048 30.0988 9.9604 29.9339 10.159L32.2423 12.0752ZM26.5982 18.8746L32.2423 12.0752L29.9339 10.159L24.2899 16.9584L26.5982 18.8746ZM20.9656 19.3975C22.6654 20.8085 25.1872 20.5744 26.5982 18.8746L24.2899 16.9584C23.9371 17.3834 23.3067 17.4419 22.8817 17.0892L20.9656 19.3975ZM20.4426 13.7649C19.0316 15.4647 19.2658 17.9865 20.9656 19.3975L22.8817 17.0892C22.4567 16.7364 22.3982 16.106 22.751 15.681L20.4426 13.7649ZM22.703 11.0419L20.4426 13.7649L22.751 15.681L25.0113 12.958L22.703 11.0419ZM2.5 13.4999H23.8571V10.4999H2.5V13.4999ZM-1.5 9.49994C-1.5 11.7091 0.29086 13.4999 2.5 13.4999V10.4999C1.94772 10.4999 1.5 10.0522 1.5 9.49994H-1.5ZM2.5 5.49994C0.290861 5.49994 -1.5 7.2908 -1.5 9.49994H1.5C1.5 8.94765 1.94772 8.49994 2.5 8.49994V5.49994ZM23.9898 5.49994H2.5V8.49994H23.9898V5.49994ZM20.4426 5.07517L22.8356 7.958L25.144 6.04187L22.751 3.15904L20.4426 5.07517ZM20.9656 -0.557466C19.2658 0.853532 19.0317 3.37535 20.4426 5.07517L22.751 3.15904C22.3982 2.73408 22.4568 2.10363 22.8817 1.75088L20.9656 -0.557466Z" fill="#F3F3F3" mask="url(#path-1-inside-1_140_902)"/>
</svg>
